<?xml version="1.0" encoding="utf-8"?>
<!-- Generator: Adobe Illustrator 25.1.0, SVG Export Plug-In . SVG Version: 6.00 Build 0)  -->
<svg version="1.1" id="Layer_1" xmlns="http://www.w3.org/2000/svg" xmlns:xlink="http://www.w3.org/1999/xlink" x="0px" y="0px"
	 viewBox="0 0 947.4 947.4" style="enable-background:new 0 0 947.4 947.4;" xml:space="preserve">
<style type="text/css">
@import url('https://fonts.googleapis.com/css2?family=Black+Han+Sans&display=swap');
	.st0{fill:#669199;}
	.st1{fill:#93B1B5;}
	.st2{fill:#41707A;}
	.st3{fill:#EE6E52;}
	.st4{font-family: 'Black Han Sans', sans-serif;}
	.st5{font-size:95px;}
	.st6{font-size:30px;}
	.st7{letter-spacing:15;}
</style>
<g>
	<g>
		<path class="st0" d="M946.3,504.5c0.6-10.2,1.1-20.4,1.1-30.7c0-10.3-0.5-20.6-1.1-30.7c-90.4-47.1-104.8-98.5-49.8-182.8
			c-8.7-17.3-18.4-34-29.2-50C767,217.2,730.3,180.4,737.2,80c-16-10.7-32.7-20.4-50-29.1c-84.3,55-135.7,40.6-182.8-49.8
			C494.3,0.4,484.1,0,473.7,0S453.2,0.4,443,1.1c-47.1,90.5-98.5,104.8-182.8,49.8c-17.3,8.7-34,18.4-50,29.1
			c7,100.4-29.8,137.1-130.2,130.2c-10.7,16-20.4,32.7-29.1,50c55,84.3,40.7,135.7-49.8,182.8C0.4,453.2,0,463.4,0,473.7
			c0,10.3,0.4,20.6,1.1,30.7c90.5,47.1,104.8,98.5,49.8,182.8c8.7,17.3,18.4,34,29.1,50c100.4-7,137.1,29.8,130.2,130.2
			c16,10.7,32.7,20.4,50,29.1c84.3-55,135.7-40.6,182.8,49.8c10.2,0.7,20.4,1.1,30.7,1.1s20.6-0.4,30.7-1.1
			c47.1-90.4,98.5-104.8,182.8-49.8c17.3-8.7,34-18.4,50-29.1c-7-100.4,29.8-137.1,130.2-130.2c10.7-16,20.4-32.7,29.2-50
			C841.5,603,855.9,551.6,946.3,504.5z M473.7,743.4c-148.9,0-269.7-120.7-269.7-269.7c0-148.9,120.7-269.7,269.7-269.7
			c148.9,0,269.7,120.7,269.7,269.7C743.4,622.7,622.7,743.4,473.7,743.4z"/>
		<path class="st1" d="M946.3,504.5c0.6-10.2,1.1-20.4,1.1-30.7c0-10.3-0.5-20.6-1.1-30.7c-90.4-47.1-104.8-98.5-49.8-182.8
			c-8.7-17.3-18.4-34-29.2-50C767,217.2,730.3,180.4,737.2,80c-16-10.7-32.7-20.4-50-29.1c-84.3,55-135.7,40.6-182.8-49.8
			C494.3,0.4,484.1,0,473.7,0S453.2,0.4,443,1.1c-47.1,90.5-98.5,104.8-182.8,49.8c-17.3,8.7-34,18.4-50,29.1
			c7,100.4-29.8,137.1-130.2,130.2c-10.7,16-20.4,32.7-29.1,50c55,84.3,40.7,135.7-49.8,182.8C0.4,453.2,0,463.4,0,473.7
			c0,10.3,0.4,20.6,1.1,30.7c90.5,47.1,104.8,98.5,49.8,182.8c8.7,17.3,18.4,34,29.1,50c100.4-7,137.1,29.8,130.2,130.2
			c16,10.7,32.7,20.4,50,29.1c84.3-55,135.7-40.6,182.8,49.8c10.2,0.7,20.4,1.1,30.7,1.1s20.6-0.4,30.7-1.1
			c47.1-90.4,98.5-104.8,182.8-49.8c17.3-8.7,34-18.4,50-29.1c-7-100.4,29.8-137.1,130.2-130.2c10.7-16,20.4-32.7,29.2-50
			C841.5,603,855.9,551.6,946.3,504.5z M473.7,743.4c-148.9,0-269.7-120.7-269.7-269.7c0-148.9,120.7-269.7,269.7-269.7
			c148.9,0,269.7,120.7,269.7,269.7C743.4,622.7,622.7,743.4,473.7,743.4z"/>
		<path class="st2" d="M473.7,109.4c-198.4,0-359.2,160.8-359.2,359.2c0,198.4,160.8,359.2,359.2,359.2
			c198.4,0,359.2-160.8,359.2-359.2C832.9,270.2,672.1,109.4,473.7,109.4z M473.7,743.4c-148.9,0-269.7-120.7-269.7-269.7
			c0-148.9,120.7-269.7,269.7-269.7c148.9,0,269.7,120.7,269.7,269.7C743.4,622.7,622.7,743.4,473.7,743.4z"/>
	</g>
	<text transform="matrix(1 0 0 1 224.7767 499.4706)" class="st3 st4 st5">SPROCKETS</text>
	<text transform="matrix(1 0 0 1 262.0346 534.9545)" class="st4 st6 st7">BIKE.RACE.WIN.</text>
</g>
</svg>
