<?xml version="1.0" encoding="utf-8"?>
<!-- Generator: Adobe Illustrator 25.1.0, SVG Export Plug-In . SVG Version: 6.00 Build 0)  -->
<svg version="1.1" id="Layer_1" xmlns="http://www.w3.org/2000/svg" xmlns:xlink="http://www.w3.org/1999/xlink" x="0px" y="0px"
	 viewBox="0 0 2667.1 1938.2" style="enable-background:new 0 0 2667.1 1938.2;" xml:space="preserve">
<style type="text/css">
	.st0{fill:#FFFFFF;}
	.st1{fill:#669098;}
	.st2{fill:none;stroke:#0E505C;stroke-width:12.3085;stroke-linecap:round;stroke-linejoin:round;stroke-miterlimit:10;}
	.st3{fill:#F5F9FF;}
	.st4{fill:none;stroke:#0E505C;stroke-width:11.7341;stroke-linecap:round;stroke-linejoin:round;stroke-miterlimit:10;}
	.st5{fill:#FEF9F4;}
	.st6{fill:#0E505C;}
	.st7{fill:#FDFEFF;}
	.st8{fill:#7A5D4C;}
	.st9{fill:none;stroke:#669098;stroke-width:10.1952;stroke-miterlimit:10;}
	.st10{fill:none;stroke:#1F1B44;stroke-width:17.8416;stroke-miterlimit:10;}
	.st11{fill:none;stroke:#F6C3A6;stroke-width:8.674;stroke-miterlimit:10;}
	.st12{fill:#F6C3A6;}
	.st13{fill:#EF6E51;}
	.st14{fill:#1F1B44;}
	.st15{fill:none;stroke:#1F1B44;stroke-width:12.744;stroke-miterlimit:10;}
	.st16{fill:#094C59;}
	.st17{fill:#B78B71;}
	.st18{fill:#FDF6EF;}
	.st19{fill:none;stroke:#FFFFFF;stroke-width:1.3094;stroke-linecap:round;stroke-linejoin:round;stroke-miterlimit:10;}
	.st20{fill:none;stroke:#FEF9F4;stroke-width:2.5931;stroke-linecap:round;stroke-linejoin:round;stroke-miterlimit:10;}
	.st21{fill:none;stroke:#FFFFFF;stroke-width:2.2356;stroke-linecap:round;stroke-linejoin:round;stroke-miterlimit:10;}
	.st22{fill:#FFFEFD;}
	.st23{fill:#B57C5B;}
	.st24{fill:none;stroke:#0E505C;stroke-width:1.2744;stroke-linecap:round;stroke-linejoin:round;stroke-miterlimit:10;}
	.st25{fill:none;stroke:#F6C3A6;stroke-width:3.3841;stroke-miterlimit:10;}
	.st26{fill:#FBE3D5;}
	.st27{fill:none;stroke:#669098;stroke-width:11.8523;stroke-miterlimit:10;}
	.st28{fill:none;stroke:#1F1B44;stroke-width:20.7415;stroke-miterlimit:10;}
	.st29{fill:none;stroke:#F6C3A6;stroke-width:10.0838;stroke-miterlimit:10;}
	.st30{fill:none;stroke:#1F1B44;stroke-width:14.8153;stroke-miterlimit:10;}
	.st31{fill:#FBE3D5;stroke:#FFFFFF;stroke-width:1.5222;stroke-linecap:round;stroke-linejoin:round;stroke-miterlimit:10;}
	.st32{fill:none;stroke:#0E505C;stroke-width:1.4815;stroke-linecap:round;stroke-linejoin:round;stroke-miterlimit:10;}
	.st33{fill:none;stroke:#FFFFFF;stroke-width:2.5989;stroke-linecap:round;stroke-linejoin:round;stroke-miterlimit:10;}
	.st34{fill:#F5A897;}
	.st35{fill:#FADECD;}
	.st36{fill:none;stroke:#0E505C;stroke-width:2.9631;stroke-linecap:round;stroke-linejoin:round;stroke-miterlimit:10;}
	.st37{fill:none;stroke:#FDFEFF;stroke-width:2.9631;stroke-linecap:round;stroke-linejoin:round;stroke-miterlimit:10;}
	.st38{fill:#F4BA97;}
	.st39{fill:#282B44;}
	.st40{fill:none;stroke:#FFFFFF;stroke-width:0.846;stroke-linecap:round;stroke-linejoin:round;stroke-miterlimit:10;}
	.st41{fill:#DDE6E8;}
	.st42{fill:#F1A67A;}
	.st43{fill:#2E6772;}
	.st44{fill:none;stroke:#669098;stroke-width:3.3841;stroke-miterlimit:10;}
	.st45{fill:#9DB7BD;}
	.st46{fill:none;stroke:#282B44;stroke-width:2.4035;stroke-linecap:round;stroke-linejoin:round;stroke-miterlimit:10;}
	.st47{fill:none;stroke:#282B44;stroke-width:1.5442;stroke-linecap:round;stroke-linejoin:round;stroke-miterlimit:10;}
	.st48{fill:#FBE3D4;}
	.st49{fill:none;stroke:#282B44;stroke-width:1.0024;stroke-linecap:round;stroke-linejoin:round;stroke-miterlimit:10;}
	.st50{opacity:0.32;fill:#EF6E51;}
	.st51{fill:none;stroke:#282B44;stroke-width:0.9652;stroke-linecap:round;stroke-linejoin:round;stroke-miterlimit:10;}
	.st52{fill:#3E707A;}
</style>
<rect x="-24.9" y="-21.6" class="st0" width="2706.6" height="1997.4"/>
<g>
	<g>
		<path class="st1" d="M2494.6,575.8c-20.9-7.8-43.6-11.7-62.6-23.4c-43.9-27.3-58.1-90.6-105.6-111.1c-32.6-14.1-74.7,0-92.4,30.8
			c-17.7,30.8-11.6,71.6-31.5,101c-19.2,28.5-57.1,38-80.8,62.9c-26.1,27.3-31,69.6-21.9,106.3c5.5,22.3,15.7,44,14.3,66.9
			c-2.9,49.6-58,86.5-54.9,136.1c1.9,30.6,27,55.8,55.4,67.3c28.4,11.4,59.9,11.8,90.6,12.1c38.4,0.3,76.7,0.6,115.1,0.9
			c49.7,0.4,101,0.4,146.7-19.1c30.1-12.8,56-33.5,81.5-53.9c19.1-15.3,38.6-30.9,52.3-51.2c19.9-29.3,26.1-65.9,26.3-101.4
			C2627.7,707.5,2581.2,608.2,2494.6,575.8z"/>
		<line class="st2" x1="2359" y1="1349.7" x2="2359" y2="646.8"/>
		<polyline class="st2" points="2456.1,686.4 2360.3,773.9 2209.9,689.2 		"/>
		<polyline class="st2" points="2503.9,838.2 2364.4,947.6 2196.2,906.6 		"/>
	</g>
	<g>
		<path class="st3" d="M314.4,408c-10.4-34.8-11-71.6-13.3-107.9c-2.3-36.2-6.8-73.4-24-105.4c-17.2-32-49.8-58-86.1-57.7
			c-14.5,0.1-28.9,4.4-41,12.2c-41.7,26.7-48,86-36.7,134.2c11.3,48.2,35.6,93.5,39.2,142.9c1.1,15.5,0,31.7-7.3,45.4
			c-15.3,28.5-51.7,37.6-74.4,60.6c-23.1,23.5-29.3,59.9-23.4,92.3c5.9,32.5,22.2,62,39,90.4c15.6,26.3,32.4,58.2,19,85.7
			c-4.4,9.2-11.8,16.5-18.3,24.4c-39.3,47.6-46.4,117.7-23.2,175c23.1,57.3,73.7,101.3,131.5,123c10.8,4.1,22.1,7.4,33.7,7.1
			c12.7-0.4,24.8-5.2,36.3-10.4c48.7-21.9,95.1-53.3,122.3-99.2c27.2-45.9,31.1-108.3-1-150.9c-7.9-10.5-17.8-19.7-24.2-31.2
			c-11.5-20.8-10.1-46-7.3-69.6c4.3-36.3,11.1-72.2,20.4-107.5c9.2-35,21-69.9,22.1-106.2s-10.3-75.1-39.3-96.9
			c-9.9-7.5-21.6-12.8-29.9-22C321.5,428.5,317.4,418.2,314.4,408z"/>
		<line class="st4" x1="234.4" y1="1449.7" x2="234.4" y2="445.8"/>
		<polyline class="st4" points="304.8,564.4 236.4,689.6 136.6,623.1 		"/>
		<polyline class="st4" points="148.3,826.5 236.4,963.4 302.8,834.3 		"/>
	</g>
	<g>
		<path class="st3" d="M1928.5,271c-10.4-34.8-11-71.6-13.3-107.9c-2.3-36.2-6.8-73.4-24-105.4c-17.2-32-49.8-58-86.1-57.7
			c-14.5,0.1-28.9,4.4-41,12.2c-41.7,26.7-48,86-36.7,134.2c11.3,48.2,35.6,93.5,39.2,142.9c1.1,15.5,0,31.7-7.3,45.4
			c-15.3,28.5-51.7,37.6-74.4,60.6c-23.1,23.5-29.3,59.9-23.4,92.3c5.9,32.5,22.2,62,39,90.4c15.6,26.3,32.4,58.2,19,85.7
			c-4.4,9.2-11.8,16.5-18.3,24.4c-39.3,47.6-46.4,117.7-23.2,175c23.1,57.3,73.7,101.3,131.5,123c10.8,4.1,22.1,7.4,33.7,7.1
			c12.7-0.4,24.8-5.2,36.3-10.4c48.7-21.9,95.1-53.3,122.3-99.2c27.2-45.9,31.1-108.3-1-150.9c-7.9-10.5-17.8-19.7-24.2-31.2
			c-11.5-20.8-10.1-46-7.3-69.6c4.3-36.3,11.1-72.2,20.4-107.5c9.2-35,21-69.9,22.1-106.2s-10.3-75.1-39.3-96.9
			c-9.9-7.5-21.6-12.8-29.9-22C1935.6,291.4,1931.6,281.2,1928.5,271z"/>
		<line class="st4" x1="1848.5" y1="1312.7" x2="1848.5" y2="308.7"/>
		<polyline class="st4" points="1918.9,427.4 1850.5,552.6 1750.7,486.1 		"/>
		<polyline class="st4" points="1762.5,689.4 1850.5,826.3 1917,697.3 		"/>
	</g>
	<path class="st5" d="M2411,1876c-182.9,41.1-371.4-47-558.4-34.4c-78.1,5.3-153.7,28-229.7,46.4c-221,53.5-454.4,71.1-675.7,18.8
		c-77.6-18.3-154-45.2-233.7-48.8c-148.2-6.6-288.8,68-436.9,76.2c-51.7,2.9-105.1-2.9-151.5-26C12.9,1852-28.4,1698.7,20,1583
		c48.4-115.7,168-191.1,291.7-211.5c70-11.5,153.6-14.2,192-73.8c28.9-44.8,20.3-108.3,55.4-148.5c18.6-21.2,46.3-31.9,73.5-39.5
		c121.6-33.8,250.6-20.4,376.1-7.3c252,26.3,507.7,50.1,757.6,8.3c78.8-13.2,156.9-32.9,236.7-34.9c79.8-2,163.8,15.8,223.6,68.6
		c54.4,48,84.2,120.5,142.9,163.3c59.3,43.1,138.8,49.2,200,89.4c89.3,58.7,119.8,185.6,81.2,285.3
		C2612.1,1782.2,2515.3,1852.5,2411,1876z"/>
	<path class="st5" d="M1585.4,297.8c2.5-5.4,3.9-11.5,3.9-17.8c0-23.9-19.4-43.3-43.3-43.3c-4.9,0-9.6,0.8-14,2.3
		c-6.1-31.8-34-55.8-67.5-55.8c-8.2,0-16,1.4-23.2,4c-16.6-28.3-47.3-47.3-82.5-47.3c-46.3,0-84.9,33-93.7,76.7
		c-10-6.6-22.1-10.5-35-10.5c-32.4,0-59.2,24.3-63.2,55.6c-5.4-3-11.7-4.7-18.4-4.7c-7.6,0-14.7,2.2-20.6,6.1
		c-2.7-30.5-28.4-54.5-59.6-54.5c-29.6,0-54.2,21.5-59,49.8c-3.1-0.9-6.4-1.4-9.8-1.4c-19,0-34.4,15.4-34.4,34.4
		c0,2.2,0.2,4.3,0.6,6.4H1585.4z"/>
	<path class="st5" d="M845.6,135.4c1.5-3.2,2.3-6.8,2.3-10.6c0-14.2-11.5-25.7-25.7-25.7c-2.9,0-5.7,0.5-8.3,1.4
		c-3.6-18.8-20.1-33.1-40-33.1c-4.8,0-9.5,0.8-13.8,2.4c-9.8-16.8-28-28.1-48.9-28.1c-27.5,0-50.3,19.5-55.5,45.5
		c-6-3.9-13.1-6.2-20.7-6.2c-19.2,0-35.1,14.4-37.4,33c-3.2-1.8-6.9-2.8-10.9-2.8c-4.5,0-8.7,1.3-12.2,3.6
		c-1.6-18.1-16.8-32.3-35.3-32.3c-17.6,0-32.1,12.8-35,29.5c-1.8-0.5-3.8-0.8-5.8-0.8c-11.3,0-20.4,9.1-20.4,20.4
		c0,1.3,0.1,2.6,0.4,3.8H845.6z"/>
	<path class="st5" d="M2398.9,233.5c1.5-3.2,2.3-6.8,2.3-10.6c0-14.2-11.5-25.7-25.7-25.7c-2.9,0-5.7,0.5-8.3,1.4
		c-3.6-18.8-20.1-33.1-40-33.1c-4.8,0-9.5,0.8-13.8,2.4c-9.8-16.8-28-28.1-48.9-28.1c-27.5,0-50.3,19.5-55.5,45.5
		c-6-3.9-13.1-6.2-20.7-6.2c-19.2,0-35.1,14.4-37.4,33c-3.2-1.8-6.9-2.8-10.9-2.8c-4.5,0-8.7,1.3-12.2,3.6
		c-1.6-18.1-16.8-32.3-35.3-32.3c-17.6,0-32.1,12.8-35,29.5c-1.8-0.5-3.8-0.8-5.8-0.8c-11.3,0-20.4,9.1-20.4,20.4
		c0,1.3,0.1,2.6,0.4,3.8H2398.9z"/>
	<path class="st5" d="M1627.3,622.7c1.5-3.2,2.3-6.8,2.3-10.6c0-14.2-11.5-25.7-25.7-25.7c-2.9,0-5.7,0.5-8.3,1.4
		c-3.6-18.8-20.1-33.1-40-33.1c-4.8,0-9.5,0.8-13.8,2.4c-9.8-16.8-28-28.1-48.9-28.1c-27.5,0-50.3,19.5-55.5,45.5
		c-6-3.9-13.1-6.2-20.7-6.2c-19.2,0-35.1,14.4-37.4,33c-3.2-1.8-6.9-2.8-10.9-2.8c-4.5,0-8.7,1.3-12.2,3.6
		c-1.6-18.1-16.8-32.3-35.3-32.3c-17.6,0-32.1,12.8-35,29.5c-1.8-0.5-3.8-0.8-5.8-0.8c-11.3,0-20.4,9.1-20.4,20.4
		c0,1.3,0.1,2.6,0.4,3.8H1627.3z"/>
	<g>
		<path class="st1" d="M895.7,398.2c-20.9-7.8-43.6-11.7-62.6-23.4c-43.9-27.3-58.1-90.6-105.6-111.1c-32.6-14.1-74.7,0-92.4,30.8
			c-17.7,30.8-11.6,71.6-31.5,101c-19.2,28.5-57.1,38-80.8,62.9c-26.1,27.3-31,69.6-21.9,106.3c5.5,22.3,15.7,44,14.3,66.9
			c-2.9,49.6-58,86.5-54.9,136.1c1.9,30.6,27,55.8,55.4,67.3s59.9,11.8,90.6,12.1c38.4,0.3,76.7,0.6,115.1,0.9
			c49.7,0.4,101,0.4,146.7-19.1c30.1-12.8,56-33.5,81.5-53.9c19.1-15.3,38.6-30.9,52.3-51.2c19.9-29.3,26.1-65.9,26.3-101.4
			C1028.8,529.8,982.3,430.6,895.7,398.2z"/>
		<line class="st2" x1="760.1" y1="1172.1" x2="760.1" y2="469.1"/>
		<polyline class="st2" points="857.2,508.8 761.4,596.3 611,511.5 		"/>
		<polyline class="st2" points="905,660.6 765.5,770 597.3,728.9 		"/>
	</g>
	<g>
		<path class="st6" d="M874.2,618c3.2,8.6,9.8,15.5,16.6,21.5c16,14.1,35.7,25.3,57,25.4c21.5,0.1,41.3-11,59.3-22.9
			c16.6-11,33.1-23.6,41.9-41.4c6-12.1,8.1-25.7,9.4-39.1c3.8-39.4-0.8-84.3-31.2-109.8c-6.8-5.7-16-10.3-24.3-7.1
			c-3.9,1.5-7.1,4.6-9.9,7.7c-19,21.7-27.3,51.4-47.4,72.2c-14.7,15.2-34.4,24.3-50.5,38C879.3,576.2,866.8,598.2,874.2,618z"/>
		<g>
			<g>
				
					<rect x="815.4" y="1025.5" transform="matrix(0.981 -0.1941 0.1941 0.981 -200.8677 179.9522)" class="st7" width="4.5" height="178.5"/>
				
					<rect x="738.1" y="1114" transform="matrix(0.1933 -0.9811 0.9811 0.1933 -427.7821 1712.2239)" class="st7" width="178.5" height="4.5"/>
			</g>
		</g>
		<g>
			<g>
				
					<rect x="748.3" y="1051.9" transform="matrix(0.6272 -0.7788 0.7788 0.6272 -609.0067 1009.8897)" class="st7" width="4.5" height="178.5"/>
				
					<rect x="756.6" y="1046.8" transform="matrix(0.8766 -0.4812 0.4812 0.8766 -453.0556 505.3763)" class="st7" width="4.5" height="178.5"/>
			</g>
		</g>
		<g>
			<g>
				
					<rect x="633.6" y="1205.2" transform="matrix(0.9919 -0.1269 0.1269 0.9919 -147.4142 101.5213)" class="st7" width="178.5" height="4.5"/>
				
					<rect x="722.8" y="1108.6" transform="matrix(0.2607 -0.9654 0.9654 0.2607 -620.4229 1585.5062)" class="st7" width="4.5" height="178.5"/>
			</g>
		</g>
		<g>
			<g>
				
					<rect x="660.6" y="1263.1" transform="matrix(0.7483 -0.6633 0.6633 0.7483 -650.6352 815.8514)" class="st7" width="178.5" height="4.5"/>
				
					<rect x="657" y="1254" transform="matrix(0.9447 -0.3279 0.3279 0.9447 -370.6761 314.1586)" class="st7" width="178.5" height="4.5"/>
			</g>
		</g>
		<g>
			<g>
				
					<rect x="821.8" y="1205.8" transform="matrix(0.9772 -0.2122 0.2122 0.9772 -256.0183 204.3323)" class="st7" width="4.5" height="178.5"/>
				
					<rect x="725.1" y="1291.5" transform="matrix(0.1758 -0.9844 0.9844 0.1758 -602.3826 1867.9003)" class="st7" width="178.5" height="4.5"/>
			</g>
		</g>
		<g>
			<g>
				
					<rect x="883.6" y="1187.7" transform="matrix(0.6699 -0.7424 0.7424 0.6699 -655.6238 1079.1533)" class="st7" width="4.5" height="178.5"/>
				
					<rect x="874.9" y="1192.3" transform="matrix(0.9022 -0.4313 0.4313 0.9022 -466.9253 503.6292)" class="st7" width="4.5" height="178.5"/>
			</g>
		</g>
		<g>
			<g>
				
					<rect x="800.6" y="1135.3" transform="matrix(0.6858 -0.7278 0.7278 0.6858 -548.3474 1005.0358)" class="st7" width="178.5" height="4.5"/>
				
					<rect x="805" y="1144.1" transform="matrix(0.9117 -0.4109 0.4109 0.9117 -392.0844 468.7296)" class="st7" width="178.5" height="4.5"/>
			</g>
		</g>
		<g>
			<g>
				
					<rect x="1403.4" y="1025.5" transform="matrix(0.981 -0.1941 0.1941 0.981 -189.6805 294.1011)" class="st7" width="4.5" height="178.5"/>
				
					<rect x="1326.1" y="1114" transform="matrix(0.1933 -0.9811 0.9811 0.1933 46.5305 2289.0955)" class="st7" width="178.5" height="4.5"/>
			</g>
		</g>
		<g>
			<g>
				
					<rect x="1336.2" y="1051.9" transform="matrix(0.6272 -0.7788 0.7788 0.6272 -389.8334 1467.8123)" class="st7" width="4.5" height="178.5"/>
				
					<rect x="1344.6" y="1046.8" transform="matrix(0.8766 -0.4812 0.4812 0.8766 -380.5008 788.3152)" class="st7" width="4.5" height="178.5"/>
			</g>
		</g>
		<g>
			<g>
				
					<rect x="1221.6" y="1205.2" transform="matrix(0.9919 -0.1269 0.1269 0.9919 -142.6582 176.1538)" class="st7" width="178.5" height="4.5"/>
				
					<rect x="1310.7" y="1108.6" transform="matrix(0.2607 -0.9654 0.9654 0.2607 -185.7378 2153.1357)" class="st7" width="4.5" height="178.5"/>
			</g>
		</g>
		<g>
			<g>
				
					<rect x="1248.6" y="1263.1" transform="matrix(0.7483 -0.6633 0.6633 0.7483 -502.6617 1205.8625)" class="st7" width="178.5" height="4.5"/>
				
					<rect x="1245" y="1254" transform="matrix(0.9447 -0.3279 0.3279 0.9447 -338.1828 506.9924)" class="st7" width="178.5" height="4.5"/>
			</g>
		</g>
		<g>
			<g>
				
					<rect x="1409.7" y="1205.8" transform="matrix(0.9772 -0.2122 0.2122 0.9772 -242.6297 329.089)" class="st7" width="4.5" height="178.5"/>
				
					<rect x="1313" y="1291.5" transform="matrix(0.1758 -0.9844 0.9844 0.1758 -117.7749 2446.7048)" class="st7" width="178.5" height="4.5"/>
			</g>
		</g>
		<g>
			<g>
				
					<rect x="1471.5" y="1187.7" transform="matrix(0.6699 -0.7424 0.7424 0.6699 -461.5473 1515.6765)" class="st7" width="4.5" height="178.5"/>
				
					<rect x="1462.9" y="1192.3" transform="matrix(0.9022 -0.4313 0.4313 0.9022 -409.4305 757.2109)" class="st7" width="4.5" height="178.5"/>
			</g>
		</g>
		<g>
			<g>
				
					<rect x="1388.5" y="1135.3" transform="matrix(0.6858 -0.7278 0.7278 0.6858 -363.6024 1432.9545)" class="st7" width="178.5" height="4.5"/>
				
					<rect x="1392.9" y="1144.1" transform="matrix(0.9117 -0.4109 0.4109 0.9117 -340.1447 710.3472)" class="st7" width="178.5" height="4.5"/>
			</g>
		</g>
		<g>
			<g>
				<polygon class="st7" points="1425,1214.1 1424.4,1210 1590.9,1184.1 1591.5,1188.3 				"/>
				<polygon class="st7" points="1423.8,1190.5 1424.8,1186.4 1588.5,1225.9 1587.5,1230 				"/>
			</g>
		</g>
		<path class="st8" d="M1027.6,660l32.4-20.7l35.8,53.1l104,35.2l39.1-12.9l13.4,6.7l-5,20.7l-10.1,5.6l-0.6-16.2l-6.1,15.1
			l-0.6-15.6c0,0-6.7,13.4-30.2,12.3c0,0-111.2-10.6-124.1-24C1062.8,705.9,1027.6,660,1027.6,660z"/>
		<path class="st9" d="M1260.7,783l-3.9-17.9l18.1-5.6c6.2-1.9,9.9-8.3,8.5-14.6l-1-4.5c-1.5-6.7-8.2-11-14.9-9.5l-57.6,12.9"/>
		<circle class="st10" cx="1405.1" cy="1205.2" r="178.8"/>
		<circle class="st11" cx="1405.1" cy="1205.2" r="168.6"/>
		<circle class="st10" cx="820.9" cy="1205.2" r="178.8"/>
		<circle class="st11" cx="820.9" cy="1205.2" r="168.6"/>
		<path class="st12" d="M1405.1,1195.6l-96.9-166.9c-0.5-0.8-0.8-1.6-1-2.5l-56.6-247.4l17.4-4l56.3,246.1l96.2,165.8L1405.1,1195.6
			z"/>
		<path class="st12" d="M1058,1124.5c-3.5,0-7.1-0.5-10.6-1.4c-11.8-3.3-21.3-11.6-26-23l-90.1-213.6l16.5-6.9l90.1,213.7
			c2.6,6.3,7.7,10.8,14.2,12.6c6.5,1.8,13.2,0.5,18.6-3.5l217.4-162.8l10.7,14.3l-217.5,162.8
			C1074.6,1121.8,1066.4,1124.5,1058,1124.5z"/>
		<path class="st12" d="M809.8,1195.8l-13.1-12.2l184.8-198.2c0.9-1,2.1-1.8,3.3-2.3L1277,871.3l6.4,16.7l-290.2,111L809.8,1195.8z"
			/>
		<path class="st12" d="M1110.9,1139.7c-25.2,0-282.9,29.1-290.6,29.1c-19.4,0-35.2,15.8-35.2,35.2c0,19.4,15.8,35.2,35.2,35.2
			c7.7,0,265.4,29.1,290.6,29.1c35.5,0,64.3-28.8,64.3-64.3C1175.2,1168.5,1146.4,1139.7,1110.9,1139.7z"/>
		<circle class="st13" cx="1414.4" cy="1200.1" r="34.3"/>
		<circle class="st7" cx="1413.9" cy="1199.7" r="19.7"/>
		
			<ellipse transform="matrix(0.9868 -0.1618 0.1618 0.9868 -180.1448 195.6335)" class="st7" cx="1111.4" cy="1204.2" rx="48.4" ry="48.4"/>
		
			<ellipse transform="matrix(0.3716 -0.9284 0.9284 0.3716 -418.1693 1787.6163)" class="st14" cx="1111.4" cy="1202.7" rx="25.3" ry="25.3"/>
		
			<ellipse transform="matrix(0.9773 -0.2117 0.2117 0.9773 -236.2125 201.3663)" class="st7" cx="822.3" cy="1203.8" rx="25.3" ry="25.3"/>
		
			<ellipse transform="matrix(0.9832 -0.1826 0.1826 0.9832 -205.8067 170.3343)" class="st14" cx="822.3" cy="1203.1" rx="13.3" ry="13.3"/>
		<polyline class="st15" points="1114,1209.8 1140.1,1259.7 1209.4,1262.7 		"/>
		<path class="st16" d="M1233.4,732.2l-33.4,8.1c-3.7,0.9-6.1,4.7-5.2,8.4l0,0c0.9,3.7,4.7,6.1,8.4,5.2l33.4-8.1
			c3.7-0.9,6.1-4.7,5.2-8.4l0,0C1240.9,733.6,1237.1,731.3,1233.4,732.2z"/>
		
			<rect x="1021.7" y="1127.3" transform="matrix(0.1768 -0.9843 0.9843 0.1768 -258.998 1962.7549)" class="st12" width="44.3" height="17.9"/>
		<g>
			<polygon class="st17" points="1143.7,1227.4 1118.5,1141.3 1153.7,1141.6 1162.9,1229.5 			"/>
			<g>
				<path class="st13" d="M1141.1,1218.6c0,0-12.2,22-8.6,39.1l95.6,1.7c0,0,6.2-18.2-15.3-23.2s-51.2-20.3-51.2-20.3
					S1149.3,1226.6,1141.1,1218.6z"/>
				<path class="st18" d="M1132.5,1257.7l95.6,1.7c0,0,1.5-4.5,0.4-9.6l-96.9-1.8C1131.6,1251.4,1131.8,1254.6,1132.5,1257.7z"/>
				<path class="st19" d="M1161.2,1221.3c0.8-1.6,1.8-3.2,3.2-4.3c2-1.6,4.7-2.1,7.2-2.4c2.2-0.2,4.5-0.4,6.7-0.4c2.9,0,6,0.3,8.4,2
					c0.7,0.5,1.4,1.3,1.2,2.2c-0.1,0.6-0.8,1.1-1.4,1.3c-1.9,0.8-4.2,0.5-6.2,0.2c-5-0.9-10-2-14.9-3.3c0.6,2.7,0.9,5.4,0.8,8.2
					c-0.1,2.6-0.5,5.2-1.8,7.5c-0.5,1-1.3,1.9-2.2,2.4c-1,0.5-2.2,0.7-3.2,0.1c-1-0.6-1.5-1.7-1.5-2.8c-0.1-1.1,0.2-2.2,0.6-3.2
					C1158.9,1226.3,1159.9,1223.8,1161.2,1221.3z"/>
			</g>
		</g>
		<path class="st14" d="M972.1,858.4c0,0-100.2-19-108.8,7.5c-8.6,26.5,11.2,37.3,34.3,29.8c23.1-7.5,73.4,5.6,78.6,1.5
			C981.4,893.1,972.1,858.4,972.1,858.4z"/>
		<path class="st6" d="M942.3,742.9c0,0,29.4,17,70.4,20.5l0.4,1.9c0,0,4.1,3.4,2.6,51c0,0,73,27.6,155,105.8c0,0,3.7,11.2,1.5,23.1
			s-36.5,79.7-36.5,79.7l35.8,161c0,0-29.8,17.9-51.4,11.2c0,0-50.7-136.4-55.1-184.1c0,0-114.8-124.4-122.2-131.2
			c-7.5-6.7-52.4-18.6-51.4-46.9C892.7,793.2,942.3,742.9,942.3,742.9z"/>
		<path class="st17" d="M1012,675.1l32.4-20.7l35.8,53.1l104,35.2l39.1-12.9l13.4,6.7l-5,20.7l-10.1,5.6l-0.6-16.2l-6.1,15.1
			l-0.6-15.6c0,0-6.7,13.4-30.2,12.3c0,0-111.2-10.6-124.1-24C1047.2,720.9,1012,675.1,1012,675.1z"/>
		<path class="st20" d="M963.1,752.5c0,0-27.9,55.9-29.1,65.4c-1.1,9.5,154,184.2,157.3,192c3.4,7.8,6.3,59.1,51.8,181.3"/>
		<path class="st20" d="M941.2,801.1c0,0,24.6,8.2,43.2-42.5"/>
		<polyline class="st20" points="924,767.1 934.1,773.9 915.8,813.7 895.7,817.8 		"/>
		<path class="st20" d="M1013.4,813.3c0,0-1.9,14.9-12.3,25.3"/>
		<line class="st21" x1="1060.6" y1="648.3" x2="1054.4" y2="622"/>
		<path class="st17" d="M996.7,499.2c-3.2-10.7-3.7-22.2-0.2-34.1c10.9-37.4,51.6-31.8,80.2-19.3c12.4,5.4,21.2,18.3,21.8,31.8
			c0.3,6-0.9,11.9-1,17.9c-0.1,3.7,0.4,7.4,1.7,10.9c0.8,2.1,8.1,9.9,7.9,10.8c-0.6,2.9-3.6,4.3-5.4,5.1c-0.6,0.3-1.7,3.3-1.8,5
			c-0.4,7.3-1.5,14.7-4.5,21.3c-10.7,23.6-32.3,12-50.1,0.5C1025,536.1,1003.6,522.2,996.7,499.2z"/>
		<path class="st6" d="M1092.5,480.3c-3.8-0.6-7.9,0.3-11,2.5c-0.7,0.5-1.3,1-1.6,1.8c-0.3,0.8-0.2,1.8,0.5,2.2
			c1.5-1.3,3.7-1.3,5.7-1.3c1.3,0,2.5,0,3.8,0c1.3,0,2.8,0,3.9-0.7c1.2-0.7,1.9-2.3,1.1-3.4C1094.4,480.8,1093.4,480.5,1092.5,480.3
			z"/>
		<path class="st22" d="M1099.8,530.2c-1.2,0.1-2.4-0.1-3.5-0.2c-4.3-0.7-8.6-1.5-13-2.2c-0.4-0.1-0.8-0.1-1.1,0.2
			c-0.2,0.2-0.2,0.5-0.2,0.8c0.1,0.9,0.3,1.7,0.6,2.6c2.1,6.5,7.9,11.5,14.5,13C1098.6,539.8,1099.4,535,1099.8,530.2z"/>
		<path class="st17" d="M1056.3,552c0,0-9.5,12.5-12.5,26.8s4.2,28.6,4.2,28.6s-10.1,14.3-47.7-29.2c0,0,33.4-28,32.2-48.9
			L1056.3,552z"/>
		<path class="st8" d="M1081.9,561.4c-5.7-1.7-37.6-12.3-41.3-42.8l-9.5,15.9c0,0,9.6,16.4,18.7,27.1c1.5-2.9,3-5.2,4.1-6.9
			C1063.6,560.1,1073.6,564,1081.9,561.4z"/>
		<path class="st6" d="M983.2,540.7c-8.3-11.5-7.8-27.2-5.4-41.2c3.1-18.5,9-37,20.7-51.6c6-7.5,13.8-14,23.1-16.4
			c20.7-5.4,40.7,10.4,61.9,13.3c-7.7,32.3-15.1,52.7-33.5,80.4c-7.4,11.1-67.8,41.7-76,52.2C961.3,593.8,986.3,545,983.2,540.7z"/>
		<path class="st17" d="M1044.6,514.1c0.3,1.2,0.9,2.3,1.6,3.3c1.8,2.6,4.8,4.9,8,4.2c2-0.4,3.6-1.9,4.6-3.7c1-1.8,1.4-3.8,1.7-5.8
			c0.1-0.5,0.2-1,0-1.5c-0.1-0.4-0.4-0.8-0.7-1.2c-1.5-1.7-3.1-3.4-5.3-4.2c-2.5-0.9-5.6-0.4-7.6,1.4
			C1044.8,508.6,1043.9,511.5,1044.6,514.1z"/>
		<polygon class="st12" points="1104.6,956.9 1095.4,941.6 1270.8,873 1277.3,889.7 		"/>
		<path class="st20" d="M976.5,822.7c0,0,86.5,56.8,140.7,159.7c18.4,34.9,22.4,51.4,22.4,51.4"/>
		<ellipse class="st14" cx="1088.7" cy="497.4" rx="4.2" ry="8.5"/>
		
			<ellipse transform="matrix(0.1799 -0.9837 0.9837 0.1799 379.3885 1486.3674)" class="st23" cx="1081.1" cy="515.7" rx="4.3" ry="9.4"/>
		<path class="st5" d="M1044,583.5c0,0-1.3,14.3-33.7-16c0,0-22.9,18.6-40.6,48.8c-17.7,30.3-26.4,86.9-40.6,115.8
			c-14.3,29-20.7,40.6-20.7,40.6s66.1,50.1,112.8,27.7c0,0,6.5-41.1,7.8-50.1c1.3-9.1,8.2-30.7,8.2-30.7s4.8,16,10.4,17.7
			c5.6,1.7,59.6,12.5,59.6,12.5l9.9-37.2l-8.2-3.5l7.8-13.8c0,0-19-9.9-22.5-14.7s-28.5-83-33.3-85.6
			C1056.1,592.6,1044,583.5,1044,583.5z"/>
		<path class="st24" d="M1108.8,709.3l-28.5-11.2c0,0-25.5-86.4-35.9-95.9c-10.4-9.5-16.4-13-16.4-13"/>
		<line class="st24" x1="1037.1" y1="719.6" x2="1012.5" y2="660.4"/>
	</g>
	<g>
		<g>
			<g>
				
					<rect x="403.3" y="1423.5" transform="matrix(0.981 -0.1941 0.1941 0.981 -288.7923 107.8603)" class="st7" width="5.2" height="207.5"/>
				
					<rect x="313.4" y="1526.4" transform="matrix(0.1933 -0.9811 0.9811 0.1933 -1163.6704 1642.7307)" class="st7" width="207.5" height="5.2"/>
			</g>
		</g>
		<g>
			<g>
				
					<rect x="325.2" y="1454.2" transform="matrix(0.6272 -0.7788 0.7788 0.6272 -1091.1979 836.0717)" class="st7" width="5.2" height="207.5"/>
				
					<rect x="335" y="1448.3" transform="matrix(0.8766 -0.4812 0.4812 0.8766 -705.2301 353.965)" class="st7" width="5.2" height="207.5"/>
			</g>
		</g>
		<g>
			<g>
				
					<rect x="191.9" y="1632.4" transform="matrix(0.9919 -0.1269 0.1269 0.9919 -205.1249 50.7513)" class="st7" width="207.5" height="5.2"/>
				
					<rect x="295.6" y="1520.1" transform="matrix(0.2607 -0.9654 0.9654 0.2607 -1347.2744 1488.415)" class="st7" width="5.2" height="207.5"/>
			</g>
		</g>
		<g>
			<g>
				
					<rect x="223.3" y="1699.8" transform="matrix(0.7483 -0.6633 0.6633 0.7483 -1046.9072 645.3797)" class="st7" width="207.5" height="5.2"/>
				
					<rect x="219.1" y="1689.2" transform="matrix(0.9447 -0.3279 0.3279 0.9447 -536.8908 199.4088)" class="st7" width="207.5" height="5.2"/>
			</g>
		</g>
		<g>
			<g>
				
					<rect x="410.7" y="1633.1" transform="matrix(0.9772 -0.2122 0.2122 0.9772 -359.1193 127.2423)" class="st7" width="5.2" height="207.5"/>
				
					<rect x="298.2" y="1732.7" transform="matrix(0.1758 -0.9844 0.9844 0.1758 -1376.9454 1825.9788)" class="st7" width="207.5" height="5.2"/>
			</g>
		</g>
		<g>
			<g>
				
					<rect x="482.5" y="1612" transform="matrix(0.6699 -0.7424 0.7424 0.6699 -1113.7239 926.5419)" class="st7" width="5.2" height="207.5"/>
				
					<rect x="472.5" y="1617.4" transform="matrix(0.9022 -0.4313 0.4313 0.9022 -695.8522 373.2035)" class="st7" width="5.2" height="207.5"/>
			</g>
		</g>
		<g>
			<g>
				
					<rect x="386" y="1551.2" transform="matrix(0.6858 -0.7278 0.7278 0.6858 -976.9793 844.672)" class="st7" width="207.5" height="5.2"/>
				
					<rect x="391.1" y="1561.4" transform="matrix(0.9117 -0.4109 0.4109 0.9117 -598.9699 341.5069)" class="st7" width="207.5" height="5.2"/>
			</g>
		</g>
		<g>
			<g>
				
					<rect x="1086.8" y="1423.5" transform="matrix(0.981 -0.1941 0.1941 0.981 -275.7869 240.5623)" class="st7" width="5.2" height="207.5"/>
				
					<rect x="996.9" y="1526.4" transform="matrix(0.1933 -0.9811 0.9811 0.1933 -612.2761 2313.3662)" class="st7" width="207.5" height="5.2"/>
			</g>
		</g>
		<g>
			<g>
				
					<rect x="1008.7" y="1454.2" transform="matrix(0.6272 -0.7788 0.7788 0.6272 -836.402 1368.4211)" class="st7" width="5.2" height="207.5"/>
				
					<rect x="1018.5" y="1448.3" transform="matrix(0.8766 -0.4812 0.4812 0.8766 -620.8828 682.8904)" class="st7" width="5.2" height="207.5"/>
			</g>
		</g>
		<g>
			<g>
				
					<rect x="875.5" y="1632.4" transform="matrix(0.9919 -0.1269 0.1269 0.9919 -199.597 137.5053)" class="st7" width="207.5" height="5.2"/>
				
					<rect x="979.1" y="1520.1" transform="matrix(0.2607 -0.9654 0.9654 0.2607 -841.939 2148.3027)" class="st7" width="5.2" height="207.5"/>
			</g>
		</g>
		<g>
			<g>
				
					<rect x="906.8" y="1699.8" transform="matrix(0.7483 -0.6633 0.6633 0.7483 -874.887 1098.776)" class="st7" width="207.5" height="5.2"/>
				
					<rect x="902.6" y="1689.2" transform="matrix(0.9447 -0.3279 0.3279 0.9447 -499.1219 423.5675)" class="st7" width="207.5" height="5.2"/>
			</g>
		</g>
		<g>
			<g>
				
					<rect x="1094.2" y="1633.1" transform="matrix(0.9772 -0.2122 0.2122 0.9772 -343.555 272.2763)" class="st7" width="5.2" height="207.5"/>
				
					<rect x="981.8" y="1732.7" transform="matrix(0.1758 -0.9844 0.9844 0.1758 -813.5835 2498.8499)" class="st7" width="207.5" height="5.2"/>
			</g>
		</g>
		<g>
			<g>
				
					<rect x="1166.1" y="1612" transform="matrix(0.6699 -0.7424 0.7424 0.6699 -888.1035 1434.0135)" class="st7" width="5.2" height="207.5"/>
				
					<rect x="1156" y="1617.4" transform="matrix(0.9022 -0.4313 0.4313 0.9022 -629.0126 668.0002)" class="st7" width="5.2" height="207.5"/>
			</g>
		</g>
		<g>
			<g>
				
					<rect x="1069.5" y="1551.2" transform="matrix(0.6858 -0.7278 0.7278 0.6858 -762.2061 1342.1141)" class="st7" width="207.5" height="5.2"/>
				
					<rect x="1074.7" y="1561.4" transform="matrix(0.9117 -0.4109 0.4109 0.9117 -538.5938 622.3831)" class="st7" width="207.5" height="5.2"/>
			</g>
		</g>
		<g>
			<g>
				<polygon class="st7" points="1112,1642.8 1111.2,1638 1304.8,1607.9 1305.5,1612.7 				"/>
				<polygon class="st7" points="1110.6,1615.3 1111.7,1610.6 1302,1656.5 1300.8,1661.3 				"/>
			</g>
		</g>
		<path class="st25" d="M641.3,740.2c-14.8,0.8-28.4,9-39.1,19.4c-10.7,10.3-19,22.8-27.9,34.7c-7.3,9.7-15.2,19-23.5,27.9
			c-5.7,6.1-11.7,12-18.7,16.5c-16.7,10.8-37.8,12.4-57.6,10.8c-19.8-1.6-39.4-6.1-59.3-6.5c-20.6-0.4-41.6,3.9-59.1,14.7
			c-17.6,10.7-31.4,28.3-35.3,48.5c-1.5,7.8-1.5,15.9-0.7,23.9c1.9,17.7,8.5,35.3,21,48c18,18.3,44.8,23.8,70,28.6"/>
		<path class="st26" d="M650,998.6l37.7-24l41.6,61.7l120.9,40.9l45.5-14.9l15.6,7.8l-5.8,24l-11.7,6.5l-0.6-18.8l-7.1,17.5
			l-0.6-18.2c0,0-7.8,15.6-35.1,14.3c0,0-129.3-12.3-144.2-27.9S650,998.6,650,998.6z"/>
		<path class="st12" d="M448.7,859.8c-18.7-0.6-37.9,1.5-55,9.2c-17.1,7.7-32.1,21.3-38.5,38.9c-3.7,10-4.5,20.8-3.7,31.4
			c2.8,36.4,26.3,70.6,59.3,86.1c32,15.1,70.2,12.8,103.1,0c32.9-12.8,61.3-35.2,86.8-59.7c35.2-33.7,66.6-73.1,81.4-119.5
			c9.5-29.9,12.1-62.5,28.6-89.2c-14.9-6-30.2-10.9-45.7-14.7c-8-2-16.3-3.6-24.5-2.8c-18.3,1.9-33.1,15.9-43.1,31.4
			c-10,15.4-16.7,32.9-27.6,47.7c-17.9,24.5-46.9,40.6-77.2,42.6C477.9,862.3,463.3,860.2,448.7,859.8z"/>
		<polygon class="st26" points="640.9,1100.7 627.4,1128.2 551.9,1098.1 566.8,1071.4 		"/>
		<path class="st27" d="M920.9,1141.6l-4.5-20.8l21-6.5c7.2-2.2,11.5-9.6,9.9-17l-1.1-5.2c-1.7-7.8-9.5-12.8-17.3-11l-67,15"/>
		<circle class="st28" cx="1088.9" cy="1632.5" r="207.9"/>
		<circle class="st29" cx="1088.9" cy="1632.5" r="196"/>
		<circle class="st28" cx="409.7" cy="1632.5" r="207.9"/>
		<circle class="st29" cx="409.7" cy="1632.5" r="196"/>
		<path class="st6" d="M1088.9,1621.3l-112.6-194.1c-0.5-0.9-0.9-1.9-1.1-2.9l-65.8-287.6l20.3-4.6l65.5,286.1l111.8,192.7
			L1088.9,1621.3z"/>
		<path class="st6" d="M685.3,1538.7c-4.1,0-8.2-0.6-12.3-1.7c-13.7-3.8-24.7-13.5-30.2-26.7l-104.7-248.3l19.2-8.1l104.8,248.4
			c3,7.3,9,12.6,16.5,14.7c7.5,2.1,15.4,0.6,21.6-4.1L953,1323.6l12.5,16.6l-252.8,189.2C704.6,1535.5,695.1,1538.7,685.3,1538.7z"
			/>
		<path class="st6" d="M396.8,1621.5l-15.2-14.2l214.8-230.4c1.1-1.2,2.4-2.1,3.9-2.6l339.6-129.9l7.4,19.4L610,1392.8L396.8,1621.5
			z"/>
		<path class="st6" d="M746.8,1556.3c-29.3,0-328.9,33.8-337.9,33.8c-22.6,0-40.9,18.3-40.9,40.9s18.3,40.9,40.9,40.9
			c9,0,308.5,33.8,337.9,33.8c41.3,0,74.7-33.5,74.7-74.7C821.5,1589.8,788,1556.3,746.8,1556.3z"/>
		<circle class="st6" cx="1099.6" cy="1626.5" r="39.9"/>
		<circle class="st7" cx="1099.1" cy="1626" r="22.9"/>
		<circle class="st7" cx="747.4" cy="1631.3" r="56.3"/>
		<circle class="st14" cx="747.4" cy="1629.5" r="29.5"/>
		
			<ellipse transform="matrix(0.3827 -0.9239 0.9239 0.3827 -1252.792 1386.7343)" class="st7" cx="411.3" cy="1630.8" rx="29.5" ry="29.5"/>
		
			<ellipse transform="matrix(0.3827 -0.9239 0.9239 0.3827 -1251.9547 1386.175)" class="st14" cx="411.3" cy="1629.9" rx="15.4" ry="15.4"/>
		<polyline class="st30" points="750.5,1637.8 780.8,1695.8 861.4,1699.3 		"/>
		<path class="st16" d="M889.2,1082.5l-38.8,9.4c-4.3,1-7,5.5-6,9.8l0,0c1,4.3,5.5,7,9.8,6l38.8-9.4c4.3-1,7-5.5,6-9.8l0,0
			C898,1084.2,893.6,1081.5,889.2,1082.5z"/>
		
			<rect x="643.1" y="1541.8" transform="matrix(0.1768 -0.9843 0.9843 0.1768 -977.1797 1936.1365)" class="st13" width="51.5" height="20.8"/>
		<g>
			<polygon class="st26" points="784.9,1658.2 755.7,1558.1 796.5,1558.5 807.3,1660.6 			"/>
			<g>
				<path class="st13" d="M781.9,1648c0,0-14.2,25.6-10,45.5l111.1,2c0,0,7.2-21.2-17.8-27c-25-5.8-59.6-23.6-59.6-23.6
					S791.4,1657.3,781.9,1648z"/>
				<path class="st26" d="M771.9,1693.5l111.1,2c0,0,1.8-5.2,0.5-11.2l-112.7-2C770.8,1686.1,771.1,1689.9,771.9,1693.5z"/>
				<path class="st31" d="M805.3,1651.2c1-1.8,2.1-3.7,3.7-5c2.3-1.9,5.4-2.5,8.4-2.8c2.6-0.3,5.2-0.4,7.8-0.4c3.4,0,7,0.4,9.7,2.3
					c0.8,0.6,1.7,1.5,1.4,2.5c-0.2,0.8-0.9,1.3-1.6,1.6c-2.2,1-4.8,0.6-7.2,0.2c-5.8-1-11.6-2.3-17.3-3.9c0.7,3.1,1,6.3,0.9,9.5
					c-0.1,3-0.6,6.1-2.1,8.7c-0.6,1.1-1.5,2.2-2.6,2.8c-1.1,0.6-2.6,0.8-3.7,0.1c-1.1-0.6-1.7-2-1.8-3.2c-0.1-1.3,0.3-2.5,0.7-3.8
					C802.6,1656.9,803.8,1654,805.3,1651.2z"/>
			</g>
		</g>
		<path class="st5" d="M668.2,917.4c0,0,11.7,12.3,13,14.3c1.3,1.9,13.6,47.4,13.6,47.4l-6.5,5.8c0,0,8.4,28.6,8.4,31.2
			c0,2.6-42.9,89-42.9,89s-74.7,9.1-119.6-33.1c0,0,23.4-24.7,31.2-63.7c7.8-39,33.1-104.6,64.3-110.5L668.2,917.4z"/>
		<path class="st14" d="M585.4,1229.3c0,0-116.5-22.1-126.5,8.7c-10,30.8,13,43.3,39.9,34.7c26.9-8.7,85.3,6.5,91.4,1.7
			C596.3,1269.6,585.4,1229.3,585.4,1229.3z"/>
		<path class="st1" d="M550.8,1095c0,0,34.2,19.7,81.9,23.8l0.4,2.2c0,0,4.8,3.9,3,59.3c0,0,84.9,32.1,180.2,123
			c0,0,4.3,13,1.7,26.9c-2.6,13.9-42.4,92.7-42.4,92.7l41.6,187.1c0,0-34.7,20.8-59.8,13c0,0-58.9-158.5-64.1-214
			c0,0-133.4-144.7-142.1-152.5c-8.7-7.8-61-21.7-59.8-54.6C493.2,1153.5,550.8,1095,550.8,1095z"/>
		<path class="st26" d="M631.8,1016.2l37.7-24l41.6,61.7l120.9,40.9l45.5-14.9l15.6,7.8l-5.8,24l-11.7,6.5l-0.6-18.8l-7.1,17.5
			l-0.6-18.2c0,0-7.8,15.6-35.1,14.3c0,0-129.3-12.3-144.2-27.9C672.7,1069.5,631.8,1016.2,631.8,1016.2z"/>
		<path class="st32" d="M574.9,1106.2c0,0-32.5,65-33.8,76s179,214.1,182.9,223.2c3.9,9.1,7.4,68.7,60.2,210.7"/>
		<path class="st32" d="M549.5,1162.6c0,0,28.6,9.5,50.2-49.4"/>
		<polyline class="st32" points="529.6,1123.2 541.2,1131 520,1177.3 496.6,1182.1 		"/>
		<path class="st32" d="M633.5,1176.9c0,0-2.2,17.3-14.3,29.5"/>
		<line class="st33" x1="688.3" y1="985" x2="681.2" y2="954.5"/>
		<path class="st26" d="M618.8,816.4c-3.5-11.7-4-24.2-0.3-37.2c11.8-40.7,56.2-34.7,87.3-21c13.5,5.9,23,19.9,23.7,34.6
			c0.3,6.5-1,13-1.1,19.5c-0.1,4,0.4,8.1,1.9,11.8c0.9,2.3,2.2,4.3,3.9,6c2,2,7.2,2.9,4,9.4c-0.9,1.7-3.4,2.4-5.2,1.9
			c-0.7-0.2-1.8,3.6-1.9,5.5c-0.5,7.9-1.6,16-4.9,23.2c-11.7,25.7-35.1,13.1-54.6,0.6C649.7,856.6,626.4,841.4,618.8,816.4z"/>
		<path class="st6" d="M723.3,797.5c-4.2-0.7-8.6,0.3-12,2.8c-0.7,0.5-1.4,1.1-1.8,2c-0.3,0.8-0.2,1.9,0.5,2.4
			c1.7-1.4,4-1.4,6.2-1.4c1.4,0,2.8,0,4.2,0c1.5,0,3,0,4.3-0.7c1.3-0.7,2-2.5,1.2-3.7C725.3,797.9,724.2,797.6,723.3,797.5z"/>
		<path class="st22" d="M731.2,850.2c-1.3,0.1-2.6-0.1-3.8-0.3c-4.7-0.8-9.4-1.6-14.1-2.4c-0.4-0.1-0.9-0.1-1.2,0.2
			c-0.2,0.2-0.2,0.5-0.2,0.8c0.1,1,0.3,1.9,0.6,2.8c2.3,7,8.6,12.5,15.8,14.2C729.9,860.6,730.7,855.4,731.2,850.2z"/>
		<path class="st26" d="M683.8,873.9c0,0-10.4,13.6-13.6,29.2c-3.2,15.6,4.5,31.2,4.5,31.2s-11,15.6-52-31.8
			c0,0,36.4-30.5,35.1-53.3L683.8,873.9z"/>
		<path class="st34" d="M711.7,884.1c-6.3-1.8-40.9-13.4-45-46.6l-10.4,17.3c0,0,10.5,17.9,20.4,29.5c1.7-3.1,3.3-5.7,4.5-7.5
			C691.7,882.7,702.6,887,711.7,884.1z"/>
		<path class="st12" d="M604.2,861.6c-9.1-12.6-8.4-29.6-5.9-44.9c3.4-20.1,9.7-40.3,22.5-56.2c6.5-8.2,15-15.2,25.1-17.8
			c22.5-5.8,44.3,11.3,67.4,14.5c-8.4,35.2-16.4,57.4-36.5,87.5c-8.1,12.1-73.9,45.4-82.7,56.9C580.3,919.5,607.6,866.3,604.2,861.6
			z"/>
		<path class="st35" d="M671,832.7c0.3,1.3,1,2.5,1.7,3.6c2,2.9,5.3,5.3,8.7,4.6c2.2-0.4,3.9-2.1,5-4s1.5-4.1,1.9-6.3
			c0.1-0.5,0.2-1.1,0-1.6c-0.1-0.5-0.5-0.9-0.8-1.3c-1.6-1.9-3.4-3.7-5.8-4.6c-2.8-1-6-0.4-8.2,1.6
			C671.3,826.6,670.3,829.8,671,832.7z"/>
		<polygon class="st6" points="739.5,1343.8 728.8,1325.9 932.7,1246.3 940.3,1265.6 		"/>
		<path class="st32" d="M590.5,1187.7c0,0,100.6,66.1,163.6,185.6c21.4,40.6,26,59.8,26,59.8"/>
		<path class="st33" d="M703.2,760.4c-14,44.9-50.3,83.1-92.5,103c-63.7,30-149.3,16.9-203.5,66.1c-13.9,12.6-23.4,31.8-19.6,50.2
			c3,14.6,13.7,26.4,25.3,35.7"/>
		<path class="st33" d="M693.4,756.8c-9.3,19.6-23.5,36.4-38.9,51.6c-9.4,9.3-19.3,18.1-30.4,25.1C609,843,592,848.7,575,854.1
			c-33.2,10.4-66.8,19.3-100.7,26.7c-21.4,4.7-43.2,8.9-62.9,18.4c-19.7,9.5-37.5,25.4-44.1,46.3"/>
		<path class="st13" d="M650.4,1052.3l-37.5,89.9c0,0-78-30.6-97.8-58.3c0,0,30.6-38.5,36.5-63.2s47.9-117,79.5-126.9
			c0,0,11.4,29.6,35.1,41.5l17.8,55.8l27.7,53.3l109.6,40.5l-6.9,32.6l-130.6-26c-6.2-1.2-11.6-4.9-15-10.3L650.4,1052.3z"/>
		<line class="st32" x1="650.4" y1="1052.3" x2="624.5" y2="1003.7"/>
		<path class="st32" d="M616.4,1132.8c0,0-72.6-30.6-92.8-62.2"/>
		<path class="st13" d="M669.2,913.3l14.1,57.3l9.4,39l18.5,39.3l120.7,45.9l8.2-29.6l-110.4-37c0,0-38.5-96.3-43-101.5
			C682.3,921.5,669.2,913.3,669.2,913.3z"/>
		<path class="st32" d="M819.8,1089.4l1.5-4.4l-109.6-40.5c0,0-46.4-92.8-49.9-94.8c-3.5-2-23.2-12.3-23.2-12.3"/>
		<polygon class="st32" points="632.2,1069.1 575.9,1082.5 578.3,1095.3 634.2,1081.5 		"/>
		<polyline class="st32" points="615.4,903.7 651.4,932.8 651.4,943.2 		"/>
		<ellipse class="st14" cx="718.4" cy="815.7" rx="3.9" ry="8"/>
		<path class="st13" d="M720.9,836.1c-0.5,2.5-5.4,3.8-10.9,2.8c-5.6-1-9.7-3.9-9.2-6.5c0.5-2.5,5.4-3.8,10.9-2.8
			C717.2,830.7,721.4,833.6,720.9,836.1z"/>
		<path class="st36" d="M645.3,940c0,0-25.2-15.6-70.4,45.2c-45.2,60.7-118.5,126.7-151.1,125.9"/>
		<g>
			<path class="st14" d="M468.5,1217l-39.8-104.8c-1.4-3.7-5.5-5.6-9.2-4.1l-68.8,26.2c-3.7,1.4-5.6,5.5-4.1,9.2l39.8,104.8
				c1.4,3.7,5.5,5.6,9.2,4.1l68.8-26.2C468,1224.8,469.9,1220.7,468.5,1217z"/>
			<path class="st37" d="M459.9,1227.9c0,0-36.6-15.7-49.6-49.8s2.3-67.5,2.3-67.5"/>
			
				<rect x="397.5" y="1166.2" transform="matrix(0.3555 0.9347 -0.9347 0.3555 1364.4297 378.3631)" class="st12" width="20.7" height="24.7"/>
			
				<rect x="401" y="1171.6" transform="matrix(0.3555 0.9347 -0.9347 0.3555 1364.1843 379.3608)" class="st14" width="12.1" height="14.4"/>
		</g>
		<path class="st36" d="M464.8,1222.2c0,0,141.2-53.3,181.7-174.8"/>
	</g>
	<g>
		<g>
			<g>
				<path class="st38" d="M1950.2,773.2l-19.7,26l-15.8,7.9c0,0,36.3,55.2,60,54.5l-2.4-24.5l18.2-37.1L1950.2,773.2z"/>
				<path class="st38" d="M1921.4,726.5c-2.1-13.1-0.9-26.7,5-40.2c18.6-42.3,65.7-29.5,97.3-10.3c13.7,8.3,22.1,24.8,20.7,40.8
					c-0.6,7.1-3,13.8-4,20.9c-0.4,2.7-0.6,5.5-0.4,8.3c0.1,1.6,0.4,3.2,0.8,4.7c0.7,2.6,2.4,19.8,0.5,19c-0.8-0.3-2.5,3.6-2.9,5.6
					c-1.6,8.5-4.8,19.5-9.4,26.8c-16.2,26.1-39,6.7-58.2-9.6C1949.1,774.2,1926,754.5,1921.4,726.5z"/>
				<path class="st13" d="M1971.3,765.8c-1.1,24.2,33.5,44.8,43.2,48.5c-8.5,2.2-17.8-2-26.9-8.3l-1.5,3.1
					c-16.2-17.4-26.6-39.8-26.6-39.8L1971.3,765.8z"/>
				<path class="st6" d="M2038.6,723.3c-4.4-1.3-9.3-0.9-13.4,1.3c-0.9,0.5-1.7,1-2.2,1.9c-0.5,0.8-0.5,2,0.2,2.7
					c2-1.3,4.6-1,6.9-0.7c1.5,0.2,3,0.4,4.5,0.6c1.6,0.2,3.3,0.4,4.7-0.2c1.5-0.6,2.6-2.4,1.9-3.8
					C2040.7,724.1,2039.6,723.6,2038.6,723.3z"/>
				<path class="st23" d="M1944.9,779.1c0,0,27.5-4.4,45.9-24.6l7.1-8.9l22.3-59.9l-98.1,5c0,0-8.3,33,2.3,50.5
					C1935.1,758.7,1944.9,779.1,1944.9,779.1z"/>
				<path class="st39" d="M2034.6,786.9c0.5,0,0.9-0.3,1-0.8c0.1-0.5-0.3-1-0.8-1.1c-0.1,0-7.8-1.3-13.3-4.7
					c-0.5-0.3-1.1-0.2-1.4,0.3c-0.3,0.5-0.1,1.1,0.3,1.4c5.8,3.6,13.7,4.9,14,5C2034.5,786.9,2034.5,786.9,2034.6,786.9z"/>
				<path class="st23" d="M1928.7,656c1.1,0.5,1.4,1.9,1.5,3.1c0.2,2.7,0.5,5.4,0.7,8.1c5.4-11.1,18.9-16.1,31.3-16.1
					c12.4,0.1,24.3,4.1,36.5,6.2c10.8,1.9,21.8,2.2,32.7,1c4.3-0.5,8.8-1.2,12.9,0.1c4.2,1.2,7.9,5.1,7.4,9.4
					c-0.6,4.6-5.4,7.2-9.7,8.9c4.1-1.8,8.6-3.1,13.1-2.8c4.5,0.4,9,2.8,10.8,7c3.5,8-5.3,16.7-14,17.8c-8.7,1-17.2-2.5-26-3.4
					c2.6-0.8,5.3,2.2,4.7,4.9c-0.6,2.7-3.4,4.4-6.1,4.6s-5.4-0.9-7.8-2.1c-6-2.9-11.6-6.8-16.4-11.5c-9.1,10-24,11.6-37.4,11.7
					c-13.5,0.2-30.2,18-41.2,25.7c-8.7-10.2-5.6-45.3,4.1-54.6c-2.4-4.8-2.6-10.8-0.5-15.7C1925.9,657,1927.3,655.4,1928.7,656z"/>
				<path class="st39" d="M2027.5,740.3c0.9-4.8,3.5-8.3,5.8-7.9c2.3,0.4,3.5,4.7,2.6,9.5c-0.9,4.8-3.5,8.3-5.8,7.9
					C2027.8,749.4,2026.6,745.1,2027.5,740.3z"/>
				<path class="st38" d="M2050,771.3c1.8,3.7-12.8,6.3-12.8,6.3l2.4-33.9C2039.5,743.7,2043.3,757.3,2050,771.3z"/>
				<path class="st40" d="M1939.5,675.1c4-2.5,9.1-2.1,13.6-1.1c7.6,1.6,14.8,4.7,22,7.7c12.7,5.4,25.4,10.8,38.2,16.2
					c2.2,0.9,4.5,1.9,7,2c2.4,0.1,5-0.9,6.2-3c1.2-2.1,0.2-5.3-2.1-5.9c7.8,1.1,15.7,1.6,23.6,1.3c3.3-0.1,7.1-0.6,9.1-3.2
					c2.9-3.8-0.1-9.8-4.6-11.6c-4.5-1.8-9.5-0.7-14.2,0.4"/>
				<path class="st40" d="M1937.9,671.1c2.8-3.5,7.3-5.3,11.8-5.6c4.5-0.3,9,0.7,13.3,1.9c11,3.1,21.6,7.7,31.4,13.5
					c6.2,3.7,13.2,8.1,20.2,6.2c0.8-0.2,1.7-0.8,1.6-1.6c-0.2-0.8-1.8,0.1-1,0.4"/>
				<path class="st40" d="M2005.9,697.5c1.5,25.6-13.3,51.5-36.1,63.2c-5.7,3-12,5.1-17.2,8.9"/>
				<path class="st40" d="M2000.8,697.4c-0.6,15-7,29.4-16.7,40.9c-9.6,11.5-22.4,20.2-36,26.3"/>
				<path class="st38" d="M1999.7,741.6c0,0-8-12.9-16-7.1c-8.1,5.8,1.2,24,8.6,24.5S1999.7,741.6,1999.7,741.6z"/>
			</g>
			<g>
				<g>
					
						<rect x="1646.7" y="1365.1" transform="matrix(0.981 -0.1941 0.1941 0.981 -253.3768 348.1078)" class="st41" width="5.1" height="203.2"/>
					
						<rect x="1558.7" y="1465.9" transform="matrix(0.1933 -0.9811 0.9811 0.1933 -101.3558 2813.5784)" class="st41" width="203.2" height="5.1"/>
				</g>
				<g>
					
						<rect x="1570.3" y="1395.2" transform="matrix(0.6272 -0.7788 0.7788 0.6272 -579.4244 1782.9296)" class="st41" width="5.1" height="203.2"/>
					
						<rect x="1579.8" y="1389.4" transform="matrix(0.8766 -0.4812 0.4812 0.8766 -522.2255 945.4651)" class="st41" width="5.1" height="203.2"/>
				</g>
				<g>
					
						<rect x="1439.8" y="1569.6" transform="matrix(0.9919 -0.1269 0.1269 0.9919 -187.0671 208.3353)" class="st41" width="203.2" height="5.1"/>
					
						<rect x="1541.3" y="1459.7" transform="matrix(0.2607 -0.9654 0.9654 0.2607 -365.9416 2644.73)" class="st41" width="5.1" height="203.2"/>
				</g>
				<g>
					
						<rect x="1470.5" y="1635.6" transform="matrix(0.7483 -0.6633 0.6633 0.7483 -690.9781 1455.1133)" class="st41" width="203.2" height="5.1"/>
					
						<rect x="1466.4" y="1625.2" transform="matrix(0.9447 -0.3279 0.3279 0.9447 -447.079 604.1873)" class="st41" width="203.2" height="5.1"/>
				</g>
				<g>
					
						<rect x="1654" y="1570.3" transform="matrix(0.9772 -0.2122 0.2122 0.9772 -317.0322 389.564)" class="st41" width="5.1" height="203.2"/>
					
						<rect x="1543.9" y="1667.9" transform="matrix(0.1758 -0.9844 0.9844 0.1758 -288.1606 2996.6169)" class="st41" width="203.2" height="5.1"/>
				</g>
				<g>
					
						<rect x="1724.3" y="1549.7" transform="matrix(0.6699 -0.7424 0.7424 0.6699 -655.9601 1827.174)" class="st41" width="5.1" height="203.2"/>
					
						<rect x="1714.5" y="1554.9" transform="matrix(0.9022 -0.4313 0.4313 0.9022 -546.5419 902.532)" class="st41" width="5.1" height="203.2"/>
				</g>
				<g>
					
						<rect x="1629.8" y="1490.2" transform="matrix(0.6858 -0.7278 0.7278 0.6858 -542.3646 1729.0991)" class="st41" width="203.2" height="5.1"/>
					
						<rect x="1634.8" y="1500.1" transform="matrix(0.9117 -0.4109 0.4109 0.9117 -464.1081 846.2889)" class="st41" width="203.2" height="5.1"/>
				</g>
				<g>
					
						<rect x="2365.7" y="1365.1" transform="matrix(0.981 -0.1941 0.1941 0.981 -239.6975 487.6846)" class="st41" width="5.1" height="203.2"/>
					
						<rect x="2277.7" y="1465.9" transform="matrix(0.1933 -0.9811 0.9811 0.1933 478.6073 3518.9529)" class="st41" width="203.2" height="5.1"/>
				</g>
				<g>
					
						<rect x="2289.2" y="1395.2" transform="matrix(0.6272 -0.7788 0.7788 0.6272 -311.4282 2342.8586)" class="st41" width="5.1" height="203.2"/>
					
						<rect x="2298.8" y="1389.4" transform="matrix(0.8766 -0.4812 0.4812 0.8766 -433.5085 1291.433)" class="st41" width="5.1" height="203.2"/>
				</g>
				<g>
					
						<rect x="2158.7" y="1569.6" transform="matrix(0.9919 -0.1269 0.1269 0.9919 -181.2536 299.5778)" class="st41" width="203.2" height="5.1"/>
					
						<rect x="2260.2" y="1459.7" transform="matrix(0.2607 -0.9654 0.9654 0.2607 165.5744 3338.8052)" class="st41" width="5.1" height="203.2"/>
				</g>
				<g>
					
						<rect x="2189.5" y="1635.6" transform="matrix(0.7483 -0.6633 0.6633 0.7483 -510.0405 1932.0052)" class="st41" width="203.2" height="5.1"/>
					
						<rect x="2185.4" y="1625.2" transform="matrix(0.9447 -0.3279 0.3279 0.9447 -407.3258 839.9404)" class="st41" width="203.2" height="5.1"/>
				</g>
				<g>
					
						<rect x="2372.9" y="1570.3" transform="matrix(0.9772 -0.2122 0.2122 0.9772 -300.6614 542.1118)" class="st41" width="5.1" height="203.2"/>
					
						<rect x="2262.8" y="1667.9" transform="matrix(0.1758 -0.9844 0.9844 0.1758 304.3949 3704.356)" class="st41" width="203.2" height="5.1"/>
				</g>
				<g>
					
						<rect x="2443.3" y="1549.7" transform="matrix(0.6699 -0.7424 0.7424 0.6699 -418.6507 2360.9385)" class="st41" width="5.1" height="203.2"/>
					
						<rect x="2433.4" y="1554.9" transform="matrix(0.9022 -0.4313 0.4313 0.9022 -476.2393 1212.6019)" class="st41" width="5.1" height="203.2"/>
				</g>
				<g>
					
						<rect x="2348.8" y="1490.2" transform="matrix(0.6858 -0.7278 0.7278 0.6858 -316.4674 2252.3674)" class="st41" width="203.2" height="5.1"/>
					
						<rect x="2353.8" y="1500.1" transform="matrix(0.9117 -0.4109 0.4109 0.9117 -400.6069 1141.7627)" class="st41" width="203.2" height="5.1"/>
				</g>
				<g>
					<polygon class="st41" points="2340.7,1579.8 2339.9,1575.1 2529.4,1545.6 2530.1,1550.4 					"/>
					<polygon class="st41" points="2339.3,1552.9 2340.4,1548.3 2526.7,1593.2 2525.6,1597.9 					"/>
				</g>
				<path class="st41" d="M2213.6,1117c-2.3,0-4.4-1.6-5-4l-4.5-20.4c-0.6-2.6,0.9-5.2,3.5-6l20.6-6.3c4.5-1.4,7.2-6.1,6.2-10.7
					l-1.1-5.1c-0.5-2.4-1.9-4.4-4-5.7c-2.1-1.3-4.5-1.7-6.9-1.2l-65.6,14.7c-2.7,0.6-5.5-1.1-6.1-3.9c-0.6-2.7,1.1-5.5,3.9-6.1
					l65.6-14.7c5-1.1,10.2-0.2,14.6,2.6c4.4,2.8,7.4,7.1,8.5,12.1l1.1,5.1c2.1,9.7-3.6,19.7-13.2,22.6l-16.1,5l3.5,15.8
					c0.6,2.7-1.1,5.5-3.9,6.1C2214.4,1117,2214,1117,2213.6,1117z"/>
				<path class="st39" d="M2367.7,1786c-119.3,0-216.3-97-216.3-216.3c0-119.3,97-216.3,216.3-216.3s216.3,97,216.3,216.3
					C2584,1689,2487,1786,2367.7,1786z M2367.7,1378.9c-105.2,0-190.9,85.6-190.9,190.9c0,105.2,85.6,190.9,190.9,190.9
					c105.2,0,190.9-85.6,190.9-190.9C2558.5,1464.5,2472.9,1378.9,2367.7,1378.9z"/>
				<path class="st12" d="M2367.7,1766.6c-108.5,0-196.9-88.3-196.9-196.9s88.3-196.9,196.9-196.9s196.8,88.3,196.8,196.9
					S2476.2,1766.6,2367.7,1766.6z M2367.7,1382.7c-103.1,0-187,83.9-187,187c0,103.1,83.9,187,187,187c103.1,0,187-83.9,187-187
					C2554.7,1466.6,2470.8,1382.7,2367.7,1382.7z"/>
				<path class="st39" d="M1653,1786c-119.3,0-216.3-97-216.3-216.3c0-119.3,97-216.3,216.3-216.3c119.3,0,216.3,97,216.3,216.3
					C1869.3,1689,1772.3,1786,1653,1786z M1653,1378.9c-105.2,0-190.9,85.6-190.9,190.9c0,105.2,85.6,190.9,190.9,190.9
					c105.2,0,190.9-85.6,190.9-190.9C1843.9,1464.5,1758.2,1378.9,1653,1378.9z"/>
				<path class="st12" d="M1653,1766.6c-108.5,0-196.9-88.3-196.9-196.9s88.3-196.9,196.9-196.9c108.5,0,196.8,88.3,196.8,196.9
					S1761.5,1766.6,1653,1766.6z M1653,1382.7c-103.1,0-187,83.9-187,187c0,103.1,83.9,187,187,187s187-83.9,187-187
					C1840,1466.6,1756.1,1382.7,1653,1382.7z"/>
				<path class="st1" d="M2378.1,1581.6l-110.3-190c-0.5-0.9-0.9-1.8-1.1-2.8l-64.5-281.6l19.8-4.5l64.1,280.1l109.5,188.7
					L2378.1,1581.6z"/>
				<path class="st1" d="M1922.9,1477.9c-4,0-8-0.5-12-1.6c-13.5-3.7-24.2-13.2-29.5-26.2l-102.6-243.2l18.8-7.9l102.6,243.2
					c2.9,7.1,8.8,12.3,16.2,14.4c7.2,2,14.8,0.6,20.9-3.8l286.8-253.6l13.5,15.2l-287.1,253.9c-0.2,0.2-0.4,0.4-0.6,0.5
					C1941.8,1474.8,1932.5,1477.9,1922.9,1477.9z"/>
				<path class="st1" d="M1640.4,1558.9l-14.9-13.9l210.4-225.6c1.1-1.1,2.4-2,3.8-2.6l380.2-146l7.3,19l-378,145.1L1640.4,1558.9z"
					/>
				<path class="st1" d="M1983.1,1495.2c-28.7,0-322,33.1-330.8,33.1c-22.1,0-40.1,17.9-40.1,40.1c0,22.1,17.9,40.1,40.1,40.1
					c8.8,0,302.1,33.1,330.8,33.1c40.4,0,73.2-32.8,73.2-73.2C2056.2,1527.9,2023.5,1495.2,1983.1,1495.2z"/>
				
					<ellipse transform="matrix(0.7071 -0.7071 0.7071 0.7071 -409.2704 2139.6809)" class="st1" cx="2378.2" cy="1563.9" rx="39" ry="39"/>
				<circle class="st41" cx="2377.7" cy="1563.4" r="22.4"/>
				
					<ellipse transform="matrix(0.7071 -0.7071 0.7071 0.7071 -528.1103 1862.1068)" class="st41" cx="1983.7" cy="1568.5" rx="55.1" ry="55.1"/>
				<circle class="st39" cx="1983.7" cy="1566.8" r="28.8"/>
				
					<ellipse transform="matrix(0.9869 -0.1616 0.1616 0.9869 -231.703 288.0558)" class="st41" cx="1654.6" cy="1568.1" rx="28.8" ry="28.8"/>
				
					<ellipse transform="matrix(0.7071 -0.7071 0.7071 0.7071 -623.5792 1629.0015)" class="st39" cx="1654.6" cy="1567.2" rx="15.1" ry="15.1"/>
				<path class="st39" d="M2095.3,1647.9c-0.2,0-0.4,0-0.6,0l-78.9-3.4c-4.5-0.2-8.6-2.8-10.7-6.8l-29.7-56.8
					c-3.3-6.2-0.8-13.9,5.4-17.2c6.2-3.3,13.9-0.8,17.2,5.4l26.3,50.3l71.6,3.1c7,0.3,12.5,6.2,12.2,13.3
					C2107.7,1642.5,2102,1647.9,2095.3,1647.9z"/>
				<path class="st16" d="M2182.6,1054.1l-38,9.2c-4.3,1-6.9,5.3-5.9,9.6l0,0c1,4.3,5.3,6.9,9.6,5.9l38-9.2c4.3-1,6.9-5.3,5.9-9.6
					l0,0C2191.2,1055.7,2186.9,1053.1,2182.6,1054.1z"/>
				
					<rect x="1881.5" y="1481" transform="matrix(0.1767 -0.9843 0.9843 0.1767 102.2154 3104.4683)" class="st1" width="50.4" height="20.4"/>
				<g>
					<polygon class="st42" points="2014.8,1588.7 1977.8,1462.1 2029.5,1462.6 2043.1,1591.8 					"/>
					<g>
						<path class="st12" d="M2011,1575.9c0,0-17.9,32.4-12.6,57.5l140.6,2.5c0,0,9.2-26.8-22.5-34.1c-31.7-7.3-75.4-29.9-75.4-29.9
							S2023,1587.7,2011,1575.9z"/>
						<path class="st18" d="M1998.3,1633.4l140.6,2.5c0,0,2.2-6.6,0.7-14.1l-142.6-2.6C1997,1624.1,1997.3,1628.9,1998.3,1633.4z"/>
						<path class="st0" d="M2039.4,1601.3c-0.9,0-1.8-0.2-2.5-0.7c-1.6-0.9-2.6-2.7-2.7-4.9c-0.1-1.8,0.4-3.6,0.9-5.1
							c1.2-3.9,2.8-7.7,4.7-11.3c1.3-2.4,2.7-4.8,5-6.6c3.2-2.6,7.4-3.3,11.1-3.7c3.1-0.3,6.3-0.5,9.5-0.5h0.5
							c4.2,0,9.1,0.4,12.9,3.1c1.7,1.2,2.5,2.8,2.2,4.2c-0.3,1.1-1.1,2-2.5,2.7c-1.4,0.6-2.9,0.9-4.6,0.9c-1.8,0-3.5-0.3-5.1-0.6
							c-6.9-1.2-13.8-2.7-20.5-4.5c0.7,3.5,1,7.2,0.9,10.8c-0.2,4.7-1.1,8.4-2.8,11.4c-1,1.9-2.2,3.1-3.6,3.9
							C2041.6,1601,2040.5,1601.3,2039.4,1601.3z M2046,1574.2c-0.1,0-0.1,0.1-0.2,0.1c-2,1.6-3.3,3.8-4.5,6
							c-1.8,3.5-3.4,7.2-4.6,11c-0.4,1.4-0.9,2.9-0.8,4.4c0.1,1.5,0.8,2.7,1.8,3.3c1,0.6,2.5,0.5,3.7-0.2c1.1-0.6,2-1.7,2.9-3.2
							c1.5-2.8,2.4-6.2,2.5-10.6C2047.1,1581.4,2046.8,1577.8,2046,1574.2z M2048.8,1572.6c6.6,1.7,13.3,3.2,20.1,4.4
							c1.5,0.3,3.1,0.5,4.7,0.5c1.5,0,2.8-0.2,3.9-0.7c0.5-0.2,1.3-0.7,1.4-1.3c0.2-0.8-0.6-1.7-1.4-2.2c-3.4-2.4-7.8-2.7-11.8-2.8
							h-0.5c-3.1,0-6.2,0.2-9.3,0.5C2053.5,1571.2,2051,1571.6,2048.8,1572.6z"/>
					</g>
				</g>
				<path class="st39" d="M1825.1,1175c0,0-114.1-21.6-123.8,8.5c-9.8,30.1,12.7,42.4,39,33.9c26.3-8.5,83.6,6.4,89.5,1.7
					S1825.1,1175,1825.1,1175z"/>
				<path class="st14" d="M1779.3,1022.6c0,0,35.9,20.7,85.8,25l0.5,2.3c0,0,5,4.1,3.2,62.2c0,0,89,33.6,188.9,129
					c0,0,4.5,13.6,1.8,28.2c-2.7,14.5-44.5,97.2-44.5,97.2l43.6,196.2c0,0-36.3,21.8-62.7,13.6c0,0-77-186.3-82.4-244.5
					c0,0-133.1-126.8-142.2-135c-9.1-8.2-55.5-27.5-54.2-62C1718.8,1084,1779.3,1022.6,1779.3,1022.6z"/>
				<path class="st1" d="M2024,1570.4c-0.6,0-1.1-0.3-1.3-0.9c-43-115.7-54.9-179.3-59.9-206.4c-1.4-7.5-2.3-12.5-3.2-14.5
					c-1.5-3.4-31.2-38.2-62.7-75c-73.7-86.1-130-152.5-129.1-159.7c1.4-11.7,34.2-77.4,35.6-80.2c0.3-0.7,1.2-0.9,1.8-0.6
					c0.7,0.3,0.9,1.2,0.6,1.8c-0.3,0.7-34,68-35.3,79.3c0,7.6,77.3,97.9,128.5,157.7c39.3,45.9,61.6,72.1,63.2,75.7
					c1,2.3,1.9,7.1,3.4,15.1c5,27.1,16.9,90.5,59.8,206c0.3,0.7-0.1,1.5-0.8,1.8C2024.4,1570.3,2024.2,1570.4,2024,1570.4z"/>
				<path class="st43" d="M1782.9,1095.5c-3.2,0-5.2-0.6-5.5-0.7c-0.7-0.2-1.1-1-0.9-1.7c0.2-0.7,1-1.1,1.7-0.9
					c0.3,0.1,29.1,8.7,51-51c0.3-0.7,1-1.1,1.7-0.8c0.7,0.3,1.1,1,0.8,1.7C1814.5,1089.4,1792.9,1095.5,1782.9,1095.5z"/>
				<path class="st43" d="M1722.5,1115.3c-0.6,0-1.2-0.4-1.3-1.1c-0.2-0.7,0.3-1.5,1.1-1.6l23.8-4.9l21.5-46.9l-11.3-7.5
					c-0.6-0.4-0.8-1.3-0.4-1.9c0.4-0.6,1.3-0.8,1.9-0.4l12.3,8.2c0.6,0.4,0.8,1.1,0.5,1.7l-22.3,48.6c-0.2,0.4-0.5,0.7-1,0.8
					l-24.5,5C1722.7,1115.3,1722.6,1115.3,1722.5,1115.3z"/>
				<polygon class="st1" points="1993.1,1279.6 1979,1263 2165.1,1191.6 2172.5,1210.5 				"/>
				<polyline class="st44" points="1866.6,1126.3 1994,1281.4 2015,1366.5 				"/>
			</g>
			<path class="st38" d="M1986.8,902.8L2012,1005l131,46.9l33.6-21.6l26.4,3.6l21.6,27.6l-3.6,12l-7.2,13.2l-7.2-8.4l-7.2,8.4
				l-10.8-28.8c0,0-33.6,25.2-44.5,25.2c-10.8,0-164.6-27.6-164.6-27.6l-46.9-92.5L1986.8,902.8z"/>
			<path class="st45" d="M1883.4,1115.9l-167,0.8c0,0,32.4-140.2,94.9-223.5c62.5-83.3,118.6-96.1,118.6-96.1l25.6,36.9
				c0,0,20.8,8,28.8,20.8s30.4,128.2,30.4,128.2l-62.5,32l-6.4-12.8l-54.5,72.1L1883.4,1115.9z"/>
			<line class="st46" x1="1945.9" y1="1002.2" x2="1923.5" y2="928.9"/>
			<path class="st46" d="M1955.5,833.9c0,0-19.2-3.2-27.2-3.2"/>
			<path class="st1" d="M1823.9,1346.7h-348.7c-4.1,0-7.5-3.4-7.5-7.5v-2.5c0-4.1,3.4-7.5,7.5-7.5h348.7c4.1,0,7.5,3.4,7.5,7.5v2.5
				C1831.3,1343.3,1828,1346.7,1823.9,1346.7z"/>
			<g>
				<path class="st1" d="M1574.9,1079.6c0,0,27.7,5.1,34.1,13.7s22.5,43.9,22.5,43.9l-17.5,7.9l20.5,113.2c0,0-65.2,25.4-127.9,6.3
					l-4.6-87.7l-22.2-0.3c0,0,8.3-55.3,16.9-68.7c8.6-13.4,45.2-26.7,45.2-26.7L1574.9,1079.6z"/>
				<line class="st47" x1="1608.7" y1="1132.4" x2="1604.5" y2="1118.6"/>
				<circle class="st13" cx="1606" cy="1177" r="51.6"/>
				<g>
					<path class="st39" d="M1564.8,1208c35.9-15.8,54-35.4,63-50.4c5-8.2,7.7-15.8,9.2-22c-1.8-1.4-3.8-2.7-5.8-3.8
						c-3.5,16.5-17.3,47.9-70,70.6C1562.3,1204.5,1563.5,1206.3,1564.8,1208z"/>
					<path class="st48" d="M1569.5,1213.5c1.7,1.7,3.5,3.3,5.4,4.7c35.9-15.8,54-35.4,63-50.4c5-8.3,7.7-15.8,9.2-22
						c-1.6-2.2-3.4-4.2-5.4-6C1639,1155.6,1626.3,1189.6,1569.5,1213.5z"/>
					<path class="st1" d="M1646.8,1176.7c3.7-6.2,6.2-11.9,7.8-17c-1.1-3.2-2.6-6.3-4.3-9.2c-3.4,16.3-16.9,48.2-70.1,71.1
						c2.4,1.4,5,2.6,7.7,3.6C1621.1,1209.8,1638.2,1191.1,1646.8,1176.7z"/>
				</g>
				<path class="st39" d="M1566.3,1097c12.1-2.3,14.4-10.5,14.5-16.2c-3.4-0.8-5.8-1.2-5.8-1.2l-32.8,1.7c0,0-4.2,1.5-10.1,4.1
					C1534.7,1087.7,1549.1,1100.3,1566.3,1097z"/>
				<path class="st38" d="M1487.8,1177l37.1-1.2c0,0-0.3,4.7,1.4,5.3c1.6,0.6,34.8-3.8,34.8-3.8s8.3-13.9,13.8-16
					c0,0,1.1,2.7-2.8,10.1c0,0,22.3-6.6,21.9-3.7c-0.5,2.9-3.4,4.8-3.4,4.8s4.9,0.2,5.1,1.8c0.2,1.5-4.7,4.4-4.7,4.4s7,0.5,7.3,3.1
					s-11.3,7.5-11.3,7.5s9.6,2.6,9,4.4c-0.6,1.9-29.3,6.6-29.3,6.6s-58.1,18-72.2-2.4C1494.5,1197.8,1489.9,1191.3,1487.8,1177z"/>
				<path class="st38" d="M1648.3,1179.3c0.2,0.7,1,0.9,1.7,1c1.8,0.2,3.7,0.1,5.5-0.3c0.6-0.1,1.3-0.3,1.8-0.8
					c1.2-1.2,0.6-3.2-0.2-4.7c1-0.4,1-1.8,0.9-2.8c-0.4-3.8-0.8-7.7-1.1-11.5c0-0.3-0.1-0.7-0.3-0.9c-0.2-0.3-0.6-0.4-1-0.5
					c-2.3-0.4-4.6-0.2-6.9,0.1c-1.9,0.2-4.2,0.8-4.7,2.6c2.1,0.9,4.3,1.8,6.4,2.8c-1.7,0.6-3.2,1.5-4.7,2.5c-0.6,0.4-1.2,1-1,1.7
					c0.1,0.6,0.7,0.9,1.3,1.1c1.4,0.6,2.8,1.1,4.2,1.5c-1.5,0.2-2.9,0.8-4,1.8c-0.2,0.2-0.5,0.4-0.5,0.7c-0.2,0.8,0.6,1.3,1.3,1.7
					c1.5,0.7,3.1,1.2,4.7,1.6C1650.5,1177.7,1649.4,1178.5,1648.3,1179.3z"/>
				<polyline class="st47" points="1480,1176.6 1530.8,1175.2 1533.2,1133.1 				"/>
				<path class="st38" d="M1539.5,1062.4l0.5,18.5l-4,2.7c0,0,29.1,23.6,41.2-1.3l-4.4-5.2l-1.5-7.5L1539.5,1062.4z"/>
				<path class="st13" d="M1539.5,1062.4l31.8,7.1l0.9,4.7c-5.5,3.7-23.9,3.8-32.6-7.8L1539.5,1062.4z"/>
				<path class="st38" d="M1575.8,1069.6c34.2-8.7,20.2-39.8,19.9-45c-0.9-15.4,1.1-54.2-48.8-46.4
					C1493.7,986.5,1515.4,1085,1575.8,1069.6z"/>
				<path class="st14" d="M1582.2,1024.4c-0.4-3.9,1-7.2,3.1-7.4c2.1-0.2,4.2,2.7,4.6,6.6c0.4,3.9-1,7.2-3.1,7.4
					C1584.7,1031.1,1582.6,1028.2,1582.2,1024.4z"/>
				<path class="st14" d="M1551,1030.9c-0.9-3.8,0.1-7.2,2.2-7.7c2.1-0.5,4.5,2.2,5.4,5.9c0.9,3.8-0.1,7.2-2.2,7.7
					C1554.3,1037.3,1551.9,1034.7,1551,1030.9z"/>
				<path class="st49" d="M1573.2,1031.8c-0.3,1.2,0.6,2.6,1.8,2.8c0.5,0.1,1,0,1.5,0c1.8,0.1,3.2,2,2.9,3.8c-0.3,1.8-2.1,3.1-3.9,3
					"/>
				<path class="st6" d="M1556.7,1015.1c-0.3-1.5-2.2-2.1-3.7-2c-3.2,0.2-6.2,2.3-7.4,5.3c-0.4,0.9-0.5,2.1,0.3,2.6
					c0.6,0.4,1.3,0.2,1.9-0.1c0.6-0.3,1-0.8,1.6-1.2c1.3-0.9,3-0.9,4.6-1.3C1555.4,1017.9,1557,1016.6,1556.7,1015.1z"/>
				<path class="st6" d="M1578,1012.6c-0.5-1.4,0.8-2.9,2.1-3.6c2.8-1.5,6.5-1.3,9.1,0.6c0.8,0.6,1.5,1.5,1.1,2.4
					c-0.3,0.6-1,0.9-1.7,0.9s-1.3-0.2-2-0.2c-1.6,0-3,0.9-4.6,1.3C1580.6,1014.4,1578.6,1014.1,1578,1012.6z"/>
				<path class="st50" d="M1562.4,1050.1c1.1,4,0,8.5-3.9,10.6c-2.2,1.2-4.8,1.5-7.3,1.2c-7.4-0.8-16.1-8.6-12.4-16.7
					c2.3-5.2,10-6.4,14.8-4.7c3.8,1.3,7.1,4.9,8.5,8.7C1562.2,1049.4,1562.3,1049.7,1562.4,1050.1z"/>
				<path class="st50" d="M1589.3,1034.6c-2.9,2.8-4.4,7.5-4,11.5c0,0.3,0.1,0.6,0.1,1c0.7,4.1,3.6,7.7,7.9,8
					c1.1,0.1,2.1-0.1,3.1-0.3c3.7-8.2,2.1-17.6,0.6-23.8C1594.1,1031.4,1591.2,1032.8,1589.3,1034.6z"/>
				<path class="st51" d="M1582.7,1047.4c0,0-6.4,7.5-15.4,2.1"/>
				<path class="st23" d="M1571.6,964.6c-15.1-2-29.7,5.5-42,14.5c0.6-1.8,1.2-3.7,1.8-5.5c0.2-0.5,0.3-1,0.2-1.5
					c-0.4-1.3-2.4-1.1-3.6-0.3c-3.6,2.3-5.7,6.6-5.2,10.8c-1.8-1-3.6-2.1-5.6-2.2c-2-0.1-4.3,0.9-4.9,2.8c-0.5,1.8,0.6,3.8,2.2,4.9
					c1.6,1.1,3.5,1.4,5.4,1.7c-6.3,6.5-7.1,16.6-6.5,25.7c0.7,10.5,3.3,21.8,11.4,28.4c8.7-15,16.9-31.5,15.5-48.7
					c4.8,2.7,9.9,4.8,15.2,6.3c1.5,0.4,3.1,0.7,4.4,0c1.5-0.9,2-3,1.4-4.7c-0.5-1.7-1.8-3.1-3-4.4c7.6,2.3,15.6,3.2,23.5,2.8
					c3.7-0.2,7.5-0.8,10.6-2.8c3.1-2,5.3-5.8,4.5-9.4c-0.4-1.9-1.6-3.5-2.9-4.8c-7.5-7.6-19.6-8.1-30.2-6.4
					C1567.4,970.7,1570.4,968,1571.6,964.6z"/>
				<path class="st38" d="M1526.6,1039.2c0,0-3.5-4.5-10.2-1c-6.7,3.5,0.7,17.7,10.4,14.5
					C1536.6,1049.6,1526.6,1039.2,1526.6,1039.2z"/>
				<path class="st47" d="M1506.6,1259.9c0,0,50.4,20.5,127.1-5.8"/>
				<path class="st14" d="M1713.9,1285.5l10.2,11.3c0,0,22.6,0.6,24.3,3.9s-25.4,28.2-35,24.8s-21.4-28.8-21.4-28.8L1713.9,1285.5z"
					/>
				<path class="st12" d="M1513.4,1227.4c0,0,80.1-25.7,91.4-25.9c11.3-0.3,32.7-4.8,49.1,3.1c16.4,7.9,70.2,88.6,70.2,88.6
					l-25.1,20l-55.3-39.8l-123.5-1.7l-16.4-8.5L1513.4,1227.4z"/>
			</g>
			
				<rect x="1668.4" y="1277" transform="matrix(0.6964 -0.7177 0.7177 0.6964 -394.0551 1641.7168)" class="st1" width="149.6" height="19.2"/>
			<path class="st6" d="M1494.8,1329.2c0,0-55.8-261.4-46.5-276.6c9.3-15.2,34.7-28.8,55.8-5.9c21.2,22.8,42.3,196.3,42.3,196.3
				s137.1-9.3,144.7,2.5s-8.5,84.6-8.5,84.6L1494.8,1329.2z"/>
		</g>
	</g>
</g>
<rect x="-785.6" y="-287.3" class="st52" width="10.9" height="10.9"/>
</svg>
