<?xml version="1.0" encoding="utf-8"?>
<!-- Generator: Adobe Illustrator 25.1.0, SVG Export Plug-In . SVG Version: 6.00 Build 0)  -->
<svg version="1.1" id="Layer_1" xmlns="http://www.w3.org/2000/svg" xmlns:xlink="http://www.w3.org/1999/xlink" x="0px" y="0px"
	 viewBox="0 0 3032.2 2754" style="enable-background:new 0 0 3032.2 2754;" xml:space="preserve">
<style type="text/css">
	.st0{fill:#FFFFFF;}
	.st1{fill:#FBFBF7;}
	.st2{fill:#FDF8F1;}
	.st3{fill:#B79974;}
	.st4{fill:#F6BCB5;}
	.st5{fill:#10233A;}
	.st6{fill:#EFA67A;}
	.st7{fill:#FDCFBD;}
	.st8{opacity:0.49;fill:#201F44;}
	.st9{fill:#376668;}
	.st10{fill:#F8F9FA;}
	.st11{fill:#071429;}
	.st12{fill:#885D44;}
	.st13{fill:#F4F9FF;}
	.st14{fill:#85B0BD;}
	.st15{fill:none;stroke:#FFFFFF;stroke-width:3;stroke-miterlimit:10;}
	.st16{fill:#F5F9FF;}
</style>
<rect x="14" y="15.4" class="st0" width="3032.2" height="2754"/>
<g>
	<g>
		<path class="st1" d="M2826.2,2530.1h-891c-1.6-14.6-19-90.8,6.6-132.5c94.4-153.4,250.6-40.6,250.6-40.6s11.3-124.2,160.2-128.3
			c148.9-4.1,200.7,148.2,200.7,148.2s71.2-70.3,170.3-16.4C2809.5,2407.2,2823.9,2504.9,2826.2,2530.1z"/>
		<g>
			<path class="st2" d="M2575,2520c0.6-0.5,63.5-52.7,133.5-76.7l-2.1-6c-71.1,24.4-134.9,77.3-135.5,77.8L2575,2520z"/>
			<path class="st2" d="M2737.8,2502.6l2.9-5.6c-1.8-1-45.8-23.3-126.9-12.6l0.8,6.3C2693.9,2480.2,2737.4,2502.4,2737.8,2502.6z"/>
		</g>
		<g>
			<path class="st2" d="M2391.7,2515.8l5.4-3.3c-0.1-0.1-7.7-12.5-17-35.6c-16.4-40.8-37.8-109.4-34-232.5l-6.3-0.2
				c-3.9,124.3,17.8,193.7,34.4,235.1C2383.7,2502.9,2391.4,2515.3,2391.7,2515.8z"/>
			<path class="st2" d="M2382.1,2496.5l3.9-5c-64.3-49.7-154.2-55.2-155.1-55.2l-0.3,6.3C2231.4,2442.6,2319.3,2448,2382.1,2496.5z"
				/>
			<path class="st2" d="M2350.3,2402.4l6.1-1.7c-5.9-21.5-70.1-102.4-72.8-105.9l-4.9,3.9
				C2279.3,2299.6,2344.7,2382.1,2350.3,2402.4z"/>
			<path class="st2" d="M2370.9,2442c20.4-31.1,52-110.7,53.4-114l-5.9-2.3c-0.3,0.8-32.7,82.4-52.8,112.9L2370.9,2442z"/>
		</g>
		<g>
			<path class="st2" d="M2147.3,2509.8l-8.4-6.1c-0.8-0.6-81.1-58.3-167.4-62.9l-0.3,6.3c67.6,3.6,131.6,40.6,154.8,55.5l-83.8-3.5
				l-0.3,6.3L2147.3,2509.8z"/>
			<path class="st2" d="M2081.2,2476.7l6-2c-13-38.8-40.8-75.5-41.9-77.1l-5,3.8C2040.5,2401.8,2068.5,2438.9,2081.2,2476.7z"/>
		</g>
	</g>
	<path class="st3" d="M1568.4,1916c-36.6,64.2-96,79-135.2,81.1c-8.9,0.5-16.7,0.3-23-0.1c0.8-0.7,1.6-1.4,2.4-2.1
		c6.4-5.6,11.9-11.1,16.7-16.4c15.7-17.4,23.1-33.3,24.6-48.4c1.6-15.4-3-30-11.3-44.6c-18.8-33.1,78.4-47.5,78.4-47.5
		s8.1,12.6,18.9,30C1548.6,1882.3,1559.1,1899.7,1568.4,1916z"/>
	<path class="st4" d="M1453.9,1930.2c1.6-15.4-3-30-11.3-44.6c-18.8-33.1,78.4-47.5,78.4-47.5s8.1,12.6,18.9,30
		C1512.6,1892.8,1478.6,1915.2,1453.9,1930.2z"/>
	<path class="st5" d="M1591.7,1965.1c1.1,18.8-203.2,111.5-225.3,120.4c-21.7,8.7-3.3-45.7,43.8-88.4c34.2,2.1,113.3-2.4,158.2-81.1
		C1581,1938,1591.2,1958,1591.7,1965.1z"/>
	<path class="st6" d="M1938.7,2518.5c-94.5,0-183.3-36.8-250.1-103.6c-66.8-66.8-103.6-155.6-103.6-250.1
		c0-94.5,36.8-183.3,103.6-250.1c66.8-66.8,155.6-103.6,250.1-103.6c94.5,0,183.3,36.8,250.1,103.6
		c66.8,66.8,103.6,155.6,103.6,250.1c0,94.5-36.8,183.3-103.6,250.1C2121.9,2481.7,2033.1,2518.5,1938.7,2518.5z M1938.7,1858.1
		c-169.2,0-306.8,137.6-306.8,306.8s137.6,306.8,306.8,306.8s306.8-137.6,306.8-306.8S2107.8,1858.1,1938.7,1858.1z"/>
	<path class="st6" d="M581.1,2518.5c-94.5,0-183.3-36.8-250.1-103.6c-66.8-66.8-103.6-155.6-103.6-250.1
		c0-94.5,36.8-183.3,103.6-250.1c66.8-66.8,155.6-103.6,250.1-103.6c94.5,0,183.3,36.8,250.1,103.6
		c66.8,66.8,103.6,155.6,103.6,250.1c0,94.5-36.8,183.3-103.6,250.1C764.4,2481.7,675.6,2518.5,581.1,2518.5z M581.1,1858.1
		c-169.2,0-306.8,137.6-306.8,306.8s137.6,306.8,306.8,306.8s306.8-137.6,306.8-306.8S750.3,1858.1,581.1,1858.1z"/>
	<path class="st7" d="M1563.8,1292l-227.2,218.7l155.8,234.3l57.9,87.1c-36.1,40.7-81.5,62.8-114.5,74.4
		c-26.1,9.2-44.5,11.7-44.5,11.7s-129.2-150.7-198.8-255.1c-36.9-55.4-77.1-108.9-96.3-155.6c-17-41.3-17.5-77.3,15.1-104.5
		c69.6-58,456.7-192.2,456.7-192.2l33.6,44.8L1563.8,1292z"/>
	<path class="st8" d="M1336.6,1510.7l155.8,234.3c-6.2,16.4-14.5,34.5-25.8,53.7c-30,51.1-32.1,86.9-30.8,107.8
		c-26.1,9.2-44.5,11.7-44.5,11.7s-129.2-150.7-198.8-255.1c-36.9-55.4-77.1-108.9-96.3-155.6c31.2-91.7,108.9-112.3,186.5-132.9
		c81.2-21.5,221.2-93.9,221.2-93.9l59.9,11.3L1336.6,1510.7z"/>
	<path class="st9" d="M1938.7,2540c-100.2,0-194.4-39-265.3-109.9c-70.9-70.9-109.9-165.1-109.9-265.3c0-100.2,39-194.4,109.9-265.3
		c70.9-70.9,165.1-109.9,265.3-109.9c100.2,0,194.4,39,265.3,109.9c70.9,70.9,109.9,165.1,109.9,265.3s-39,194.4-109.9,265.3
		C2133.1,2501,2038.9,2540,1938.7,2540z M1938.7,1839.4c-179.5,0-325.5,146-325.5,325.5s146,325.5,325.5,325.5
		s325.5-146,325.5-325.5S2118.1,1839.4,1938.7,1839.4z"/>
	<g>
		<rect x="1935.3" y="1827.1" class="st9" width="6.6" height="672.5"/>
		
			<rect x="1602.4" y="2160" transform="matrix(1 -4.844788e-03 4.844788e-03 1 -10.4581 9.4177)" class="st9" width="672.5" height="6.6"/>
	</g>
	<g>
		
			<rect x="1602.4" y="2160" transform="matrix(0.5054 -0.8629 0.8629 0.5054 -907.8239 2742.8972)" class="st9" width="672.5" height="6.6"/>
		
			<rect x="1935.3" y="1827.1" transform="matrix(0.5012 -0.8653 0.8653 0.5012 -904.988 2756.6545)" class="st9" width="6.6" height="672.5"/>
	</g>
	<g>
		
			<rect x="1602.4" y="2160" transform="matrix(0.8709 -0.4915 0.4915 0.8709 -812.9748 1232.2551)" class="st9" width="672.5" height="6.6"/>
		
			<rect x="1935.3" y="1827.1" transform="matrix(0.8685 -0.4957 0.4957 0.8685 -817.4362 1245.5455)" class="st9" width="6.6" height="672.5"/>
	</g>
	
		<ellipse transform="matrix(0.7071 -0.7071 0.7071 0.7071 -962.9566 2004.8998)" class="st10" cx="1938.6" cy="2164.8" rx="43.2" ry="43.2"/>
	<path class="st10" d="M2360.5,2083.2c-7.5,0-14.3-5.2-16.1-12.8c-44-189.6-210.8-322-405.7-322c-132.6,0-254.2,61-333.7,167.3
		c-5.5,7.3-15.9,8.8-23.2,3.3c-7.3-5.5-8.8-15.9-3.3-23.2c41-54.8,94.8-100.3,155.6-131.4c63.7-32.6,132.6-49.2,204.7-49.2
		c52.1,0,103.2,8.9,151.9,26.3c47,16.9,90.7,41.4,129.7,72.8c78.3,63,133.8,151.2,156.3,248.5c2.1,8.9-3.5,17.8-12.4,19.9
		C2363,2083.1,2361.7,2083.2,2360.5,2083.2z"/>
	<path class="st9" d="M581.1,2540c-100.2,0-194.4-39-265.3-109.9C245,2359.3,206,2265.1,206,2164.8c0-100.2,39-194.4,109.9-265.3
		c70.9-70.9,165.1-109.9,265.3-109.9c100.2,0,194.4,39,265.3,109.9c70.9,70.9,109.9,165.1,109.9,265.3s-39,194.4-109.9,265.3
		C775.6,2501,681.3,2540,581.1,2540z M581.1,1839.4c-179.5,0-325.5,146-325.5,325.5s146,325.5,325.5,325.5s325.5-146,325.5-325.5
		S760.6,1839.4,581.1,1839.4z"/>
	<g>
		<rect x="577.8" y="1827.1" class="st9" width="6.6" height="672.5"/>
		
			<rect x="244.9" y="2160" transform="matrix(1 -4.829695e-03 4.829695e-03 1 -10.4414 2.8319)" class="st9" width="672.5" height="6.6"/>
	</g>
	<g>
		
			<rect x="244.9" y="2160" transform="matrix(0.5054 -0.8629 0.8629 0.5054 -1579.2874 1571.4983)" class="st9" width="672.5" height="6.6"/>
		
			<rect x="577.8" y="1827.1" transform="matrix(0.5012 -0.8653 0.8653 0.5012 -1582.1234 1581.9498)" class="st9" width="6.6" height="672.5"/>
	</g>
	<g>
		
			<rect x="244.9" y="2160" transform="matrix(0.8709 -0.4915 0.4915 0.8709 -988.2579 564.9831)" class="st9" width="672.5" height="6.6"/>
		
			<rect x="577.8" y="1827.1" transform="matrix(0.8685 -0.4957 0.4957 0.8685 -995.9742 572.5964)" class="st9" width="6.6" height="672.5"/>
	</g>
	
		<ellipse transform="matrix(0.7071 -0.7071 0.7071 0.7071 -1360.5636 1044.9915)" class="st10" cx="581.1" cy="2164.8" rx="43.2" ry="43.2"/>
	<path class="st10" d="M1003,2083.2c-7.5,0-14.3-5.2-16.1-12.8c-44-189.6-210.8-322-405.7-322c-132.6,0-254.2,61-333.7,167.3
		c-5.5,7.3-15.9,8.8-23.2,3.3c-7.3-5.5-8.8-15.9-3.3-23.2c41-54.8,94.8-100.3,155.6-131.4c63.7-32.6,132.6-49.2,204.7-49.2
		c52.1,0,103.2,8.9,151.9,26.3c47,16.9,90.7,41.4,129.7,72.8c78.3,63,133.8,151.2,156.3,248.5c2.1,8.9-3.5,17.8-12.4,19.9
		C1005.5,2083.1,1004.2,2083.2,1003,2083.2z"/>
	<path class="st10" d="M1135.6,1209v27.5c0,1.2-0.1,2.3-0.3,3.4c-36.4,1.2-88.8,4-153.3,10.2c-11.7,1.1-23.9,2.4-36.4,3.7
		c-57.4,6.2-104.2,39.9-139,99.9c-26.9,46.4-36.2,91.8-36.3,92.2l-0.1,0.6l-43.9,183.3l-7.8,32.4l-16.6,69.3l-7.7,32.1l-96.9,405
		L565,2161l96.9-404.8l7.7-32.2l15.4-64.3l7.8-32.7l44.9-187.8c1-4.9,11.1-51.8,39.6-101.2c39.9-69.2,96.8-109.7,164.6-117.1
		c11.5-1.2,22.6-2.4,33.5-3.4c67.5-6.5,122.4-9.4,160.1-10.7C1135.5,1207.5,1135.6,1208.2,1135.6,1209z"/>
	<path class="st10" d="M1672.9,1397.4l-379.2,613.9c-19.1-36.9-43.9-77.7-76-118.5c-61-77.9-135.6-140-221.6-184.5
		c-80.4-41.6-170.8-67.8-269.9-78.4c-11-1.2-22.1-2.1-33.4-2.9l-7.8,32.7c11.3,0.7,22.4,1.6,33.4,2.7
		c198.6,19.7,357.2,103.5,472.4,249.8c99.5,126.4,127.5,254.8,127.8,256.1l2.8,13.2h641L1672.9,1397.4z M1310.9,2046.6l354.5-574
		l249.5,675.6h-567C1342.9,2129.6,1331.7,2092.7,1310.9,2046.6z"/>
	<path class="st9" d="M1503.9,1477.7h287.8c23.5,0,42.6-19.1,42.6-42.6v0c0-23.5-19.1-42.6-42.6-42.6h-242.3L1503.9,1477.7z"/>
	<path class="st9" d="M1135.6,1209v27.5c0,1.2-0.1,2.3-0.3,3.4c-1.6,8-8.6,14-17.1,14H992.8c-4.1,0-7.9-1.4-10.9-3.8
		c-4-3.2-6.5-8.1-6.5-13.6V1209c0-9.6,7.8-17.4,17.4-17.4h125.4c8.9,0,16.2,6.6,17.3,15.2C1135.5,1207.5,1135.6,1208.2,1135.6,1209z
		"/>
	<path class="st3" d="M1169.8,1191.6c0,0-40.9,14.1-57.4,19.2c-16.6,5.1-40.9,40.9-54.7,43.2c-13.8,2.2,15.5-38.1,15.5-38.1
		s-33.1,33.1-38.7,38.1c-5.5,5-14.4,3.3-7.7-17.7c0,0-11,14.4-17.1,12.7s6.1-25,6.1-25s-14.5,15.4-18.9,2
		c-4.3-13.4,46.5-52.1,64.7-63.1c18.2-11,80.7-27.4,80.7-27.4L1169.8,1191.6z"/>
	<path class="st3" d="M1407.2,2305.8c-16,10.5-235.8,71.8-267.8,78.4c-32,6.6-2.5-36.1,45.5-69.8c2-1.4,4-2.8,5.9-4.2
		c45.3-31.5,81.2-54.8,83.3-83.4c0.3-4.7,0.4-9.9,0.4-15.3c-0.4-28.6-5.8-62.6-5.8-62.6l89.4-18.2c0,0,3.2,18.4,10.5,42.3
		c3.6,11.7,8.1,24.8,13.8,37.7c3.5,8,7.2,16.2,10.8,24.3C1407.5,2266.9,1420,2297.4,1407.2,2305.8z"/>
	<path class="st4" d="M1358.1,2130.7c0,0,3.2,18.4,10.5,42.3c-35.4,25.8-68.4,35.6-94.1,38.5c-0.4-28.6-5.8-62.6-5.8-62.6
		L1358.1,2130.7z"/>
	<path class="st7" d="M1870.1,1317.6c-15.8,75-313.6,226.2-460.2,303.5c-47.8,25.2-79.5,42.5-80.1,46.8
		c-1.1,8,11.9,105.3,26.3,208.6c17.1,122.5,36.3,253.5,36.3,253.5s-97.4,57.1-164.5,47.2c0,0-106.8-484.3-106.8-554
		c0-13,3.3-29.4,12.1-47.8c9-19,23.8-40,46.6-61.6c88.7-84.1,242-182.6,323.9-233c33.8-20.8,55.5-33.4,55.5-33.4l8.6-36.5l2.9-12.4
		l260.9-94.4c0,0,13.3,25.6,25.1,63.2C1870,1208.8,1881.2,1265.3,1870.1,1317.6z"/>
	<path class="st8" d="M1856.9,1167.1c-36.9,10.4-82.7,23.8-113.2,34.1c-58.5,19.9-175.7,9.5-175.7,9.5l2.9-12.4l260.9-94.4
		C1831.8,1103.9,1845.1,1129.6,1856.9,1167.1z"/>
	<g>
		<path class="st5" d="M2196.2,568.9c-28.5,38.1-90.2,65.1-174.3,44.3c-39.5-9.8-73.4-45.1-99.1-48.5
			c-97.6-13-114.9,58.8-197.1,35.4c-94.4-26.9-142-89.1-142-89.1l-39.6-5.4l-81.1-11.2l-55-156.3c0,0-26.8-35.5,9.8-88.6
			c36.6-53.1,166-54.6,258.5,50.7c88.1,100.2,128.8-34.6,285,102c112.3,98.2,164.2,16.1,226.7,65.7
			C2220.8,493.7,2221.2,535.6,2196.2,568.9z"/>
		<path class="st11" d="M2196.2,568.9c-28.5,38.1-90.2,65.1-174.3,44.3c-39.5-9.8-73.4-45.1-99.1-48.5
			c-97.6-13-114.9,58.8-197.1,35.4c-94.4-26.9-142-89.1-142-89.1l-39.6-5.4c5.9-25.1,10.2-43.6,10.2-43.6s26.3,41.3,81.4,26.3
			c55.1-14.9,127.7-62,170.1-20.5c42.4,41.5,32.2,78.5,128.1,32.9C2016.3,461.3,2091.5,653,2196.2,568.9z"/>
		<path class="st3" d="M1461.4,542l12.9,44l17,58.1l107.4-79.3l-15-53.9c0,0-18.4-19.7-26.4-41c-8-21.3-68.9,11.7-68.9,11.7
			L1461.4,542z"/>
		<path class="st3" d="M1426.2,304.2c0,0-25.8,35.7-31,80.3c-5.2,44.5-14.2,73.8-36,82.4c-21.8,8.6,21,13.9,18.8,41.8
			c-2.2,27.9,5.7,73.1,58.1,56.9s102.2-77.1,102.2-77.1l-3.2-68.5c0,0-18-25.3-62.8-44.9C1432.1,357.4,1426.2,304.2,1426.2,304.2z"
			/>
		<path d="M1426.3,406.4c-0.5,5-3.2,8.8-5.9,8.5c-2.8-0.3-4.6-4.5-4.1-9.5c0.5-5,3.2-8.8,5.9-8.5
			C1424.9,397.1,1426.8,401.4,1426.3,406.4z"/>
		<path d="M1402.9,384.7c0,0,0.6-0.7,1.8-1.8c1.2-1,3-2.4,5.5-3.7c2.4-1.3,5.5-2.4,8.8-3.1c1.7-0.3,3.5-0.6,5.3-0.7
			c1.8-0.2,3.7,0,5.5,0.1c1.9,0.1,3.7,0.6,5.5,0.9c1.8,0.4,3.5,1.1,5.1,1.6c1.6,0.6,3.1,1.5,4.5,2.2c1.4,0.7,2.5,1.7,3.7,2.5
			c2.2,1.5,3.7,3.3,4.8,4.5c1,1.2,1.6,1.9,1.6,1.9s-0.9-0.2-2.4-0.6c-0.7-0.2-1.6-0.5-2.6-0.8c-1-0.4-2.2-0.6-3.3-1
			c-1.2-0.3-2.5-0.8-3.9-1.1c-1.4-0.3-2.8-0.7-4.3-1c-1.5-0.3-3-0.5-4.5-0.8c-1.6-0.1-3.1-0.5-4.7-0.6c-3.1-0.3-6.3-0.4-9.3-0.3
			c-3,0.1-5.9,0.3-8.3,0.6C1406.5,384.1,1402.9,384.7,1402.9,384.7z"/>
		<path class="st12" d="M1531.4,496.3c0,0-6.9,54.6-57.2,89.7l-9.7-33.2C1464.5,552.8,1511.5,525.1,1531.4,496.3z"/>
		<path class="st12" d="M1502.9,435.5c4.2,8.3-4.4,21.1-19.3,28.7c-14.9,7.6-30.3,7-34.5-1.3c-4.2-8.3,4.4-21.1,19.3-28.7
			C1483.2,426.7,1498.6,427.2,1502.9,435.5z"/>
		<path class="st12" d="M1532.9,418.8c0,0,13.1-28.1,38.1-18c25,10.2,22.1,76.7-32.7,87.6L1532.9,418.8z"/>
		<path class="st12" d="M1388,517.7c-6.1,0.5-10.7-0.8-11-0.9l1.6-5.9c0.6,0.2,15.1,3.9,25.2-7l4.5,4.1
			C1401.9,515,1394.2,517.3,1388,517.7z"/>
	</g>
	<path class="st13" d="M1870.1,1123.8c0,0-58.2,34.8-120.3,57.1c-62.1,22.4-190.4,29.8-190.4,29.8s-0.6-19.3-8.4-59.3
		c-1.9-9.7-4.2-20.5-7-32.6c-6.5-28-24.8-78.5-44.1-130.3c-23.5-63.2-59.7-71-65.8-98.4c-11-49.7,57-246.1,57-246.1l104.6-89.7
		c0,0,0,0,47.2,31.5c47.2,31.5,101.9,199.9,124.2,286.9C1789.6,959.8,1870.1,1123.8,1870.1,1123.8z"/>
	<path class="st14" d="M1678.6,864.4c5.2,135.8-49.7,89.4-66.3,222c-5.2,41.3-47.3,56.8-61.2,65.1c-1.9-9.7-4.2-20.5-7-32.6
		c-6.5-28-24.8-78.5-44.1-130.3l147.3-335.4C1647.3,653.1,1673.6,733.5,1678.6,864.4z"/>
	<path class="st13" d="M1586.1,607.9c-44.2,4.9-69,72.9-98.8,154s-84.4,197.1-84.4,197.1L1141.1,1133l28.7,58.6
		c0,0,182.4-28.4,328.1-115.1c147.5-87.8,160.3-306.4,159.2-381.3C1656.4,634.8,1605.9,605.7,1586.1,607.9z"/>
	<path class="st5" d="M1407.2,2305.8c-16,10.5-235.8,71.8-267.8,78.4c-32,6.6-2.5-36.1,45.5-69.8c2-1.4,4-2.8,5.9-4.2
		c15.7,7.7,52.8,20.4,102.3-0.2c40.3-16.8,77.3-50.8,100.1-74.9C1407.5,2266.9,1420,2297.4,1407.2,2305.8z"/>
	<path class="st15" d="M1769.1,1173.6c0,0,2.1,108.2-56.6,161.3c-58.7,53-446.3,265-461.2,288.2c-14.9,23.2,65.9,535.3,65.9,535.3"
		/>
	<polygon class="st3" points="1471.9,703.6 1595.8,554.5 1491.2,644.1 	"/>
</g>
<g>
	<g>
		<path class="st16" d="M3355.4,1043.9"/>
	</g>
</g>
</svg>
